<svg width="2029" height="1943" viewBox="0 0 2029 1943" fill="none" xmlns="http://www.w3.org/2000/svg">
<g filter="url(#filter0_d_1_65)">
<path d="M636 1533L596 1509.91V1556.09L636 1533ZM526 1537H600V1529H526V1537Z" fill="#747474"/>
</g>
<g filter="url(#filter1_d_1_65)">
<path d="M795.064 496.88L818.158 456.88H771.97L795.064 496.88ZM791.064 214.88V460.88H799.064V214.88H791.064Z" fill="#747474"/>
</g>
<g filter="url(#filter2_d_1_65)">
<path d="M530 1318L530 1820" stroke="#747474" stroke-width="8" stroke-linecap="round"/>
</g>
<g clip-path="url(#clip0_1_65)">
<g filter="url(#filter3_d_1_65)">
<path d="M912.467 529.3L699.333 549.833C685.8 551.133 671.2 562.6 666.733 575.433L530.333 967.067L393.267 575.4C388.8 562.6 374.167 551.133 360.667 549.833L147.533 529.3C134.033 528 126.8 537.3 131.367 550.1L399.5 1295.67C404.1 1308.43 418.867 1318.83 432.433 1318.83H639.867H641.167C643.6 1318.83 645.633 1318.17 647.133 1317C651.267 1314.93 654.833 1311.37 656.3 1307.27L657.6 1303.67L928.6 550.1C933.2 537.3 925.967 528 912.467 529.3Z" fill="#D9D9D9"/>
<path d="M667.205 575.598L666.733 575.433L667.205 575.598C669.401 569.291 674.1 563.29 679.942 558.702C685.785 554.113 692.73 550.97 699.381 550.331L699.333 549.833L699.381 550.331L912.515 529.798C919.147 529.159 924.139 531.129 926.926 534.719C929.713 538.309 930.39 543.642 928.129 549.931L657.13 1303.5L657.129 1303.5L655.83 1307.1L655.829 1307.1C654.415 1311.05 650.954 1314.53 646.91 1316.55L646.865 1316.58L646.826 1316.61C645.429 1317.69 643.509 1318.33 641.167 1318.33H639.867H432.433C425.773 1318.33 418.788 1315.78 412.892 1311.63C406.996 1307.48 402.229 1301.77 399.97 1295.5L131.838 549.932C131.838 549.932 131.837 549.932 131.837 549.931C129.594 543.642 130.279 538.31 133.07 534.719C135.861 531.129 140.853 529.159 147.485 529.798C147.485 529.798 147.485 529.798 147.485 529.798L360.619 550.331C367.253 550.97 374.199 554.113 380.046 558.698C385.893 563.282 390.6 569.275 392.795 575.565L392.795 575.565L529.861 967.232L530.334 968.584L530.806 967.231L667.205 575.598Z" stroke="black"/>
</g>
<path d="M474.049 1259L488.066 1214.2H494.274L508.226 1259H502.338L499.074 1247.86H483.202L479.938 1259H474.049ZM491.01 1221.75L484.546 1243.38H497.73L491.266 1221.75H491.01ZM515.881 1259V1214.2H521.257V1254.14H543.977V1259H515.881ZM567.824 1259.77C564.837 1259.77 562.17 1259.15 559.824 1257.91C557.52 1256.67 555.685 1254.8 554.32 1252.28C552.997 1249.72 552.336 1246.52 552.336 1242.68V1214.2H557.712V1242.87C557.712 1246.71 558.65 1249.68 560.528 1251.77C562.405 1253.86 564.88 1254.9 567.952 1254.9C571.024 1254.9 573.477 1253.86 575.312 1251.77C577.146 1249.68 578.064 1246.71 578.064 1242.87V1214.2H583.44V1242.68C583.44 1246.52 582.757 1249.72 581.392 1252.28C580.026 1254.8 578.17 1256.67 575.824 1257.91C573.477 1259.15 570.81 1259.77 567.824 1259.77Z" fill="black"/>
</g>
<g filter="url(#filter4_d_1_65)">
<rect x="103" y="68" width="324" height="148" rx="10" fill="#D9D9D9"/>
<rect x="103.5" y="68.5" width="323" height="147" rx="9.5" stroke="black"/>
</g>
<g filter="url(#filter5_d_1_65)">
<rect x="685" y="1459" width="324" height="148" rx="10" fill="#D9D9D9"/>
<rect x="685.5" y="1459.5" width="323" height="147" rx="9.5" stroke="black"/>
</g>
<g filter="url(#filter6_d_1_65)">
<rect x="685" y="1704" width="511" height="231" rx="10" fill="#D9D9D9"/>
<rect x="685.5" y="1704.5" width="510" height="230" rx="9.5" stroke="black"/>
</g>
<g filter="url(#filter7_d_1_65)">
<rect x="633" y="68" width="323" height="148" rx="10" fill="#D9D9D9"/>
<rect x="633.5" y="68.5" width="322" height="147" rx="9.5" stroke="black"/>
</g>
<g filter="url(#filter8_d_1_65)">
<rect x="1144" y="850" width="881" height="148" rx="10" fill="#D9D9D9"/>
<rect x="1144.5" y="850.5" width="880" height="147" rx="9.5" stroke="black"/>
</g>
<g filter="url(#filter9_d_1_65)">
<path d="M265 497.996L288.094 457.996H241.906L265 497.996ZM261 215.996L261 461.996H269L269 215.996H261Z" fill="#747474"/>
</g>
<g filter="url(#filter10_d_1_65)">
<path d="M862 923.875L902 946.969V900.781L862 923.875ZM1144 919.875H898V927.875H1144V919.875Z" fill="#747474"/>
</g>
<path d="M1584.02 823.768C1580.39 823.768 1577.26 822.808 1574.61 820.888C1572.01 818.968 1570 816.28 1568.6 812.824C1567.23 809.368 1566.55 805.293 1566.55 800.6C1566.55 795.949 1567.23 791.896 1568.6 788.44C1570 784.941 1572.01 782.232 1574.61 780.312C1577.26 778.392 1580.39 777.432 1584.02 777.432C1588.63 777.432 1592.34 778.712 1595.16 781.272C1597.97 783.789 1599.61 787.16 1600.08 791.384H1594.13C1593.71 788.867 1592.64 786.755 1590.93 785.048C1589.23 783.341 1586.92 782.488 1584.02 782.488C1580.31 782.488 1577.39 784.109 1575.25 787.352C1573.12 790.552 1572.05 794.968 1572.05 800.6C1572.05 806.275 1573.12 810.712 1575.25 813.912C1577.39 817.112 1580.31 818.712 1584.02 818.712C1587.05 818.712 1589.37 817.901 1591 816.28C1592.66 814.659 1593.71 812.568 1594.13 810.008H1600.08C1599.4 814.275 1597.69 817.645 1594.96 820.12C1592.28 822.552 1588.63 823.768 1584.02 823.768ZM1622.08 823.768C1619.09 823.768 1616.44 823.085 1614.14 821.72C1611.84 820.355 1610.02 818.435 1608.7 815.96C1607.38 813.443 1606.72 810.499 1606.72 807.128C1606.72 803.757 1607.38 800.835 1608.7 798.36C1610.02 795.843 1611.84 793.901 1614.14 792.536C1616.44 791.171 1619.09 790.488 1622.08 790.488C1625.06 790.488 1627.71 791.171 1630.01 792.536C1632.32 793.901 1634.13 795.843 1635.45 798.36C1636.77 800.835 1637.44 803.757 1637.44 807.128C1637.44 810.499 1636.77 813.443 1635.45 815.96C1634.13 818.435 1632.32 820.355 1630.01 821.72C1627.71 823.085 1625.06 823.768 1622.08 823.768ZM1622.08 818.648C1623.91 818.648 1625.57 818.243 1627.07 817.432C1628.56 816.621 1629.73 815.363 1630.59 813.656C1631.48 811.949 1631.93 809.773 1631.93 807.128C1631.93 804.483 1631.48 802.307 1630.59 800.6C1629.73 798.893 1628.56 797.635 1627.07 796.824C1625.57 796.013 1623.91 795.608 1622.08 795.608C1620.28 795.608 1618.64 796.013 1617.15 796.824C1615.65 797.635 1614.46 798.893 1613.56 800.6C1612.67 802.307 1612.22 804.483 1612.22 807.128C1612.22 811.096 1613.18 814.019 1615.1 815.896C1617.02 817.731 1619.34 818.648 1622.08 818.648ZM1646.88 823V791.256H1651.36L1651.94 796.056H1652.26C1653.11 794.52 1654.46 793.219 1656.29 792.152C1658.12 791.043 1660.24 790.488 1662.63 790.488C1666.51 790.488 1669.41 791.64 1671.33 793.944C1673.29 796.248 1674.27 799.576 1674.27 803.928V823H1668.9V804.568C1668.9 801.752 1668.28 799.555 1667.04 797.976C1665.8 796.355 1663.88 795.544 1661.28 795.544C1658.76 795.544 1656.63 796.419 1654.88 798.168C1653.13 799.875 1652.26 802.349 1652.26 805.592V823H1646.88ZM1702.15 823C1699.25 823 1696.97 822.296 1695.31 820.888C1693.64 819.48 1692.81 816.941 1692.81 813.272V795.864H1684.75V791.256H1689.55C1691.72 791.256 1692.98 790.189 1693.32 788.056L1694.22 783.128H1698.19V791.256H1710.86V795.864H1698.19V813.272C1698.19 815.064 1698.59 816.323 1699.4 817.048C1700.25 817.773 1701.71 818.136 1703.75 818.136H1710.86V823H1702.15ZM1723.38 823V818.392H1731.5V797.464C1731.5 796.397 1730.99 795.864 1729.97 795.864H1724.21V791.256H1731.95C1733.36 791.256 1734.49 791.64 1735.34 792.408C1736.2 793.176 1736.62 794.307 1736.62 795.8V797.144H1736.88C1737.39 795.011 1738.35 793.368 1739.76 792.216C1741.21 791.064 1743.22 790.488 1745.78 790.488H1751.6V796.184H1745.01C1742.41 796.184 1740.4 797.059 1738.99 798.808C1737.58 800.515 1736.88 802.712 1736.88 805.4V818.392H1746.86V823H1723.38ZM1775.58 823.768C1772.59 823.768 1769.94 823.085 1767.64 821.72C1765.34 820.355 1763.52 818.435 1762.2 815.96C1760.88 813.443 1760.22 810.499 1760.22 807.128C1760.22 803.757 1760.88 800.835 1762.2 798.36C1763.52 795.843 1765.34 793.901 1767.64 792.536C1769.94 791.171 1772.59 790.488 1775.58 790.488C1778.56 790.488 1781.21 791.171 1783.51 792.536C1785.82 793.901 1787.63 795.843 1788.95 798.36C1790.27 800.835 1790.94 803.757 1790.94 807.128C1790.94 810.499 1790.27 813.443 1788.95 815.96C1787.63 818.435 1785.82 820.355 1783.51 821.72C1781.21 823.085 1778.56 823.768 1775.58 823.768ZM1775.58 818.648C1777.41 818.648 1779.07 818.243 1780.57 817.432C1782.06 816.621 1783.23 815.363 1784.09 813.656C1784.98 811.949 1785.43 809.773 1785.43 807.128C1785.43 804.483 1784.98 802.307 1784.09 800.6C1783.23 798.893 1782.06 797.635 1780.57 796.824C1779.07 796.013 1777.41 795.608 1775.58 795.608C1773.78 795.608 1772.14 796.013 1770.65 796.824C1769.15 797.635 1767.96 798.893 1767.06 800.6C1766.17 802.307 1765.72 804.483 1765.72 807.128C1765.72 811.096 1766.68 814.019 1768.6 815.896C1770.52 817.731 1772.84 818.648 1775.58 818.648ZM1799.55 823V818.392H1810.37V783.128C1810.37 782.061 1809.83 781.528 1808.77 781.528H1800.7V776.92H1810.05C1811.88 776.92 1813.29 777.411 1814.27 778.392C1815.25 779.373 1815.74 780.781 1815.74 782.616V818.392H1826.56V823H1799.55ZM1890.64 823.768C1887.65 823.768 1884.98 823.149 1882.64 821.912C1880.33 820.675 1878.5 818.797 1877.13 816.28C1875.81 813.72 1875.15 810.52 1875.15 806.68V778.2H1880.52V806.872C1880.52 810.712 1881.46 813.677 1883.34 815.768C1885.22 817.859 1887.69 818.904 1890.76 818.904C1893.84 818.904 1896.29 817.859 1898.12 815.768C1899.96 813.677 1900.88 810.712 1900.88 806.872V778.2H1906.25V806.68C1906.25 810.52 1905.57 813.72 1904.2 816.28C1902.84 818.797 1900.98 820.675 1898.64 821.912C1896.29 823.149 1893.62 823.768 1890.64 823.768ZM1915.51 823V791.256H1919.99L1920.56 796.056H1920.88C1921.74 794.52 1923.08 793.219 1924.92 792.152C1926.75 791.043 1928.86 790.488 1931.25 790.488C1935.13 790.488 1938.04 791.64 1939.96 793.944C1941.92 796.248 1942.9 799.576 1942.9 803.928V823H1937.52V804.568C1937.52 801.752 1936.9 799.555 1935.67 797.976C1934.43 796.355 1932.51 795.544 1929.91 795.544C1927.39 795.544 1925.26 796.419 1923.51 798.168C1921.76 799.875 1920.88 802.349 1920.88 805.592V823H1915.51ZM1967.07 785.624C1965.79 785.624 1964.72 785.197 1963.87 784.344C1963.01 783.491 1962.59 782.467 1962.59 781.272C1962.59 780.035 1963.01 779.011 1963.87 778.2C1964.72 777.347 1965.79 776.92 1967.07 776.92C1968.3 776.92 1969.35 777.347 1970.2 778.2C1971.1 779.011 1971.55 780.035 1971.55 781.272C1971.55 782.467 1971.1 783.491 1970.2 784.344C1969.35 785.197 1968.3 785.624 1967.07 785.624ZM1954.65 823V818.392H1964.76V797.464C1964.76 796.397 1964.23 795.864 1963.16 795.864H1955.74V791.256H1964.44C1968.24 791.256 1970.14 793.155 1970.14 796.952V818.392H1980.25V823H1954.65ZM2009.15 823C2006.25 823 2003.97 822.296 2002.31 820.888C2000.64 819.48 1999.81 816.941 1999.81 813.272V795.864H1991.75V791.256H1996.55C1998.72 791.256 1999.98 790.189 2000.32 788.056L2001.22 783.128H2005.19V791.256H2017.86V795.864H2005.19V813.272C2005.19 815.064 2005.59 816.323 2006.4 817.048C2007.25 817.773 2008.71 818.136 2010.75 818.136H2017.86V823H2009.15Z" fill="black"/>
<path d="M1158.4 835.576C1155.68 835.576 1153.34 834.856 1151.39 833.416C1149.44 831.976 1147.94 829.96 1146.88 827.368C1145.86 824.744 1145.34 821.688 1145.34 818.2C1145.34 814.712 1145.86 811.672 1146.88 809.08C1147.94 806.456 1149.44 804.424 1151.39 802.984C1153.34 801.544 1155.68 800.824 1158.4 800.824C1161.12 800.824 1163.46 801.544 1165.41 802.984C1167.36 804.424 1168.85 806.456 1169.87 809.08C1170.93 811.672 1171.46 814.712 1171.46 818.2C1171.46 821.688 1170.93 824.744 1169.87 827.368C1168.85 829.96 1167.36 831.976 1165.41 833.416C1163.46 834.856 1161.12 835.576 1158.4 835.576ZM1158.4 831.784C1161.06 831.784 1163.2 830.6 1164.83 828.232C1166.5 825.864 1167.33 822.52 1167.33 818.2C1167.33 813.88 1166.5 810.536 1164.83 808.168C1163.2 805.8 1161.06 804.616 1158.4 804.616C1155.71 804.616 1153.55 805.8 1151.92 808.168C1150.29 810.536 1149.47 813.88 1149.47 818.2C1149.47 822.52 1150.29 825.864 1151.92 828.232C1153.55 830.6 1155.71 831.784 1158.4 831.784ZM1176.53 845.56V811.192H1179.79L1180.27 815.128H1180.56C1181.17 813.848 1182.14 812.776 1183.49 811.912C1184.83 811.048 1186.41 810.616 1188.24 810.616C1190.16 810.616 1191.89 811.096 1193.42 812.056C1194.99 813.016 1196.22 814.44 1197.12 816.328C1198.01 818.184 1198.46 820.456 1198.46 823.144C1198.46 825.8 1198 828.056 1197.07 829.912C1196.17 831.768 1194.93 833.176 1193.33 834.136C1191.76 835.096 1189.95 835.576 1187.9 835.576C1186.08 835.576 1184.53 835.192 1183.25 834.424C1182 833.624 1181.1 832.696 1180.56 831.64V845.56H1176.53ZM1187.42 831.736C1189.44 831.736 1191.1 831.032 1192.41 829.624C1193.73 828.184 1194.38 826.008 1194.38 823.096C1194.38 820.184 1193.73 818.024 1192.41 816.616C1191.1 815.176 1189.44 814.456 1187.42 814.456C1185.41 814.456 1183.74 815.176 1182.43 816.616C1181.12 818.024 1180.46 820.184 1180.46 823.096C1180.46 826.008 1181.12 828.184 1182.43 829.624C1183.74 831.032 1185.41 831.736 1187.42 831.736ZM1216.2 835.576C1213.96 835.576 1211.98 835.064 1210.25 834.04C1208.55 832.984 1207.21 831.528 1206.22 829.672C1205.23 827.784 1204.73 825.592 1204.73 823.096C1204.73 820.6 1205.21 818.424 1206.17 816.568C1207.16 814.68 1208.52 813.224 1210.25 812.2C1211.98 811.144 1213.99 810.616 1216.3 810.616C1218.6 810.616 1220.57 811.144 1222.2 812.2C1223.83 813.224 1225.08 814.584 1225.95 816.28C1226.81 817.976 1227.24 819.8 1227.24 821.752C1227.24 822.104 1227.23 822.456 1227.19 822.808C1227.19 823.16 1227.19 823.56 1227.19 824.008H1208.71C1208.81 825.768 1209.21 827.24 1209.91 828.424C1210.65 829.576 1211.56 830.44 1212.65 831.016C1213.77 831.592 1214.95 831.88 1216.2 831.88C1217.96 831.88 1219.34 831.512 1220.33 830.776C1221.32 830.04 1222.07 829.016 1222.59 827.704H1226.57C1226.03 829.912 1224.89 831.784 1223.16 833.32C1221.43 834.824 1219.11 835.576 1216.2 835.576ZM1216.2 814.216C1214.35 814.216 1212.71 814.776 1211.31 815.896C1209.93 817.016 1209.08 818.584 1208.76 820.6H1223.26C1223.13 818.616 1222.41 817.064 1221.1 815.944C1219.82 814.792 1218.19 814.216 1216.2 814.216ZM1234.38 835V831.544H1240.47V815.848C1240.47 815.048 1240.09 814.648 1239.32 814.648H1235V811.192H1240.81C1241.86 811.192 1242.71 811.48 1243.35 812.056C1243.99 812.632 1244.31 813.48 1244.31 814.6V815.608H1244.5C1244.89 814.008 1245.61 812.776 1246.66 811.912C1247.75 811.048 1249.26 810.616 1251.18 810.616H1255.54V814.888H1250.6C1248.65 814.888 1247.14 815.544 1246.09 816.856C1245.03 818.136 1244.5 819.784 1244.5 821.8V831.544H1251.99V835H1234.38ZM1271.51 835.576C1269.62 835.576 1268.05 835.24 1266.81 834.568C1265.56 833.896 1264.63 833.016 1264.02 831.928C1263.41 830.808 1263.11 829.592 1263.11 828.28C1263.11 825.848 1263.99 824.008 1265.75 822.76C1267.54 821.48 1269.93 820.84 1272.9 820.84H1279.43V820.36C1279.43 816.2 1277.53 814.12 1273.72 814.12C1272.18 814.12 1270.89 814.456 1269.83 815.128C1268.81 815.8 1268.15 816.856 1267.86 818.296H1263.73C1263.89 816.696 1264.42 815.32 1265.32 814.168C1266.25 813.016 1267.43 812.136 1268.87 811.528C1270.31 810.92 1271.93 810.616 1273.72 810.616C1277.11 810.616 1279.57 811.512 1281.11 813.304C1282.68 815.064 1283.46 817.416 1283.46 820.36V835H1280.01L1279.67 831.304H1279.33C1278.63 832.456 1277.69 833.464 1276.5 834.328C1275.35 835.16 1273.69 835.576 1271.51 835.576ZM1272.23 832.024C1273.77 832.024 1275.06 831.656 1276.12 830.92C1277.21 830.184 1278.02 829.208 1278.57 827.992C1279.14 826.776 1279.43 825.448 1279.43 824.008H1273.24C1271.06 824.008 1269.53 824.376 1268.63 825.112C1267.77 825.848 1267.33 826.824 1267.33 828.04C1267.33 829.288 1267.75 830.264 1268.58 830.968C1269.41 831.672 1270.63 832.024 1272.23 832.024ZM1304.8 835C1302.63 835 1300.91 834.472 1299.67 833.416C1298.42 832.36 1297.79 830.456 1297.79 827.704V814.648H1291.75V811.192H1295.35C1296.98 811.192 1297.92 810.392 1298.18 808.792L1298.85 805.096H1301.83V811.192H1311.33V814.648H1301.83V827.704C1301.83 829.048 1302.13 829.992 1302.74 830.536C1303.38 831.08 1304.47 831.352 1306 831.352H1311.33V835H1304.8ZM1330.8 806.968C1329.84 806.968 1329.04 806.648 1328.4 806.008C1327.76 805.368 1327.44 804.6 1327.44 803.704C1327.44 802.776 1327.76 802.008 1328.4 801.4C1329.04 800.76 1329.84 800.44 1330.8 800.44C1331.73 800.44 1332.51 800.76 1333.15 801.4C1333.82 802.008 1334.16 802.776 1334.16 803.704C1334.16 804.6 1333.82 805.368 1333.15 806.008C1332.51 806.648 1331.73 806.968 1330.8 806.968ZM1321.49 835V831.544H1329.07V815.848C1329.07 815.048 1328.67 814.648 1327.87 814.648H1322.3V811.192H1328.83C1331.68 811.192 1333.1 812.616 1333.1 815.464V831.544H1340.69V835H1321.49ZM1359.87 835.576C1357.63 835.576 1355.64 835.064 1353.92 834.04C1352.19 833.016 1350.83 831.576 1349.84 829.72C1348.84 827.832 1348.35 825.624 1348.35 823.096C1348.35 820.568 1348.84 818.376 1349.84 816.52C1350.83 814.632 1352.19 813.176 1353.92 812.152C1355.64 811.128 1357.63 810.616 1359.87 810.616C1362.11 810.616 1364.09 811.128 1365.82 812.152C1367.55 813.176 1368.91 814.632 1369.9 816.52C1370.89 818.376 1371.39 820.568 1371.39 823.096C1371.39 825.624 1370.89 827.832 1369.9 829.72C1368.91 831.576 1367.55 833.016 1365.82 834.04C1364.09 835.064 1362.11 835.576 1359.87 835.576ZM1359.87 831.736C1361.24 831.736 1362.49 831.432 1363.61 830.824C1364.73 830.216 1365.61 829.272 1366.25 827.992C1366.92 826.712 1367.26 825.08 1367.26 823.096C1367.26 821.112 1366.92 819.48 1366.25 818.2C1365.61 816.92 1364.73 815.976 1363.61 815.368C1362.49 814.76 1361.24 814.456 1359.87 814.456C1358.52 814.456 1357.29 814.76 1356.17 815.368C1355.05 815.976 1354.16 816.92 1353.48 818.2C1352.81 819.48 1352.48 821.112 1352.48 823.096C1352.48 826.072 1353.2 828.264 1354.64 829.672C1356.08 831.048 1357.82 831.736 1359.87 831.736ZM1378.47 835V811.192H1381.83L1382.27 814.792H1382.51C1383.15 813.64 1384.15 812.664 1385.53 811.864C1386.91 811.032 1388.49 810.616 1390.28 810.616C1393.19 810.616 1395.37 811.48 1396.81 813.208C1398.28 814.936 1399.02 817.432 1399.02 820.696V835H1394.99V821.176C1394.99 819.064 1394.52 817.416 1393.59 816.232C1392.67 815.016 1391.23 814.408 1389.27 814.408C1387.39 814.408 1385.79 815.064 1384.47 816.376C1383.16 817.656 1382.51 819.512 1382.51 821.944V835H1378.47Z" fill="black"/>
<path d="M689.368 1690V1656.4H710.344V1660.14H693.4V1671.86H707.896V1675.46H693.4V1690H689.368ZM717.381 1690V1686.54H725.493V1660.1C725.493 1659.3 725.093 1658.9 724.293 1658.9H718.245V1655.44H725.253C726.629 1655.44 727.685 1655.81 728.421 1656.54C729.157 1657.28 729.525 1658.34 729.525 1659.71V1686.54H737.637V1690H717.381ZM754.947 1690.58C753.059 1690.58 751.491 1690.24 750.243 1689.57C748.995 1688.9 748.067 1688.02 747.459 1686.93C746.851 1685.81 746.547 1684.59 746.547 1683.28C746.547 1680.85 747.427 1679.01 749.187 1677.76C750.979 1676.48 753.363 1675.84 756.339 1675.84H762.867V1675.36C762.867 1671.2 760.963 1669.12 757.155 1669.12C755.619 1669.12 754.323 1669.46 753.267 1670.13C752.243 1670.8 751.587 1671.86 751.299 1673.3H747.171C747.331 1671.7 747.859 1670.32 748.755 1669.17C749.683 1668.02 750.867 1667.14 752.307 1666.53C753.747 1665.92 755.363 1665.62 757.155 1665.62C760.547 1665.62 763.011 1666.51 764.547 1668.3C766.115 1670.06 766.899 1672.42 766.899 1675.36V1690H763.443L763.107 1686.3H762.771C762.067 1687.46 761.123 1688.46 759.939 1689.33C758.787 1690.16 757.123 1690.58 754.947 1690.58ZM755.667 1687.02C757.203 1687.02 758.499 1686.66 759.555 1685.92C760.643 1685.18 761.459 1684.21 762.003 1682.99C762.579 1681.78 762.867 1680.45 762.867 1679.01H756.674C754.499 1679.01 752.963 1679.38 752.067 1680.11C751.203 1680.85 750.771 1681.82 750.771 1683.04C750.771 1684.29 751.187 1685.26 752.019 1685.97C752.851 1686.67 754.067 1687.02 755.667 1687.02ZM785.312 1682.99C783.648 1682.99 782.16 1682.69 780.848 1682.08L779.216 1684.05C778.864 1684.53 778.768 1685.01 778.928 1685.49C779.12 1685.94 779.584 1686.16 780.32 1686.16H786.608C789.456 1686.16 791.76 1686.72 793.52 1687.84C795.28 1688.93 796.16 1690.67 796.16 1693.07C796.16 1694.51 795.792 1695.84 795.056 1697.06C794.32 1698.27 793.152 1699.25 791.552 1699.98C789.984 1700.75 787.92 1701.14 785.36 1701.14C782.032 1701.14 779.36 1700.51 777.344 1699.26C775.328 1698.02 774.32 1696.11 774.32 1693.55C774.32 1692.62 774.544 1691.76 774.992 1690.96C775.472 1690.19 776.064 1689.5 776.768 1688.9C775.84 1688.32 775.264 1687.46 775.04 1686.3C774.848 1685.15 775.2 1684.02 776.096 1682.9L778.256 1680.21C776.72 1678.61 775.952 1676.64 775.952 1674.3C775.952 1672.77 776.32 1671.34 777.056 1670.03C777.792 1668.69 778.848 1667.62 780.224 1666.82C781.632 1666.02 783.328 1665.62 785.312 1665.62C786.592 1665.62 787.776 1665.81 788.864 1666.19H797.792V1669.22L793.328 1669.36V1669.7C794.16 1671.07 794.576 1672.61 794.576 1674.3C794.576 1675.84 794.208 1677.28 793.472 1678.62C792.768 1679.94 791.712 1680.99 790.304 1681.79C788.928 1682.59 787.264 1682.99 785.312 1682.99ZM785.312 1679.54C786.88 1679.54 788.16 1679.07 789.152 1678.14C790.176 1677.22 790.688 1675.94 790.688 1674.3C790.688 1672.67 790.176 1671.41 789.152 1670.51C788.16 1669.58 786.88 1669.12 785.312 1669.12C783.712 1669.12 782.4 1669.58 781.376 1670.51C780.352 1671.41 779.84 1672.67 779.84 1674.3C779.84 1675.94 780.352 1677.22 781.376 1678.14C782.4 1679.07 783.712 1679.54 785.312 1679.54ZM778.304 1693.41C778.304 1694.82 778.96 1695.87 780.272 1696.58C781.584 1697.28 783.28 1697.63 785.36 1697.63C787.376 1697.63 789.008 1697.23 790.256 1696.43C791.536 1695.63 792.176 1694.56 792.176 1693.22C792.176 1692.16 791.728 1691.26 790.832 1690.53C789.936 1689.82 788.288 1689.47 785.888 1689.47H780.464C779.024 1690.53 778.304 1691.84 778.304 1693.41ZM814.765 1690.58C811.725 1690.58 809.261 1689.87 807.373 1688.46C805.517 1687.02 804.477 1685.06 804.253 1682.56H808.429C808.621 1683.87 809.261 1684.94 810.349 1685.78C811.469 1686.61 812.973 1687.02 814.861 1687.02C816.653 1687.02 817.981 1686.64 818.845 1685.87C819.741 1685.1 820.189 1684.22 820.189 1683.23C820.189 1681.89 819.661 1680.98 818.605 1680.5C817.549 1679.98 815.965 1679.6 813.853 1679.34C811.325 1679.06 809.229 1678.37 807.565 1677.28C805.901 1676.19 805.069 1674.56 805.069 1672.38C805.069 1670.43 805.885 1668.82 807.517 1667.54C809.149 1666.26 811.373 1665.62 814.189 1665.62C816.973 1665.62 819.165 1666.26 820.765 1667.54C822.365 1668.78 823.277 1670.58 823.501 1672.91H819.517C819.421 1671.76 818.861 1670.85 817.837 1670.18C816.845 1669.47 815.597 1669.12 814.093 1669.12C812.525 1669.12 811.309 1669.42 810.445 1670.03C809.581 1670.61 809.149 1671.38 809.149 1672.34C809.149 1673.3 809.629 1674.1 810.589 1674.74C811.581 1675.34 813.133 1675.74 815.245 1675.94C816.909 1676.13 818.429 1676.45 819.805 1676.9C821.181 1677.34 822.269 1678.05 823.069 1679.01C823.901 1679.97 824.317 1681.31 824.317 1683.04C824.349 1684.48 823.949 1685.78 823.117 1686.93C822.317 1688.05 821.197 1688.94 819.757 1689.62C818.317 1690.26 816.653 1690.58 814.765 1690.58Z" fill="black"/>
<path d="M688.936 1445V1411.4H699.256C701.848 1411.4 703.976 1411.83 705.64 1412.7C707.336 1413.56 708.6 1414.74 709.432 1416.25C710.264 1417.72 710.68 1419.4 710.68 1421.29C710.68 1423.5 710.104 1425.45 708.952 1427.14C707.832 1428.81 706.104 1429.98 703.768 1430.65L711.064 1445H706.264L699.496 1431.22H699.256H692.968V1445H688.936ZM692.968 1427.53H699.112C701.672 1427.53 703.544 1426.95 704.728 1425.8C705.944 1424.62 706.552 1423.11 706.552 1421.29C706.552 1419.37 705.96 1417.85 704.776 1416.73C703.624 1415.61 701.72 1415.05 699.064 1415.05H692.968V1427.53ZM728.421 1445.58C726.181 1445.58 724.197 1445.06 722.469 1444.04C720.773 1442.98 719.429 1441.53 718.437 1439.67C717.445 1437.78 716.949 1435.59 716.949 1433.1C716.949 1430.6 717.429 1428.42 718.389 1426.57C719.381 1424.68 720.741 1423.22 722.469 1422.2C724.197 1421.14 726.213 1420.62 728.517 1420.62C730.821 1420.62 732.789 1421.14 734.421 1422.2C736.053 1423.22 737.301 1424.58 738.165 1426.28C739.029 1427.98 739.461 1429.8 739.461 1431.75C739.461 1432.1 739.445 1432.46 739.413 1432.81C739.413 1433.16 739.413 1433.56 739.413 1434.01H720.933C721.029 1435.77 721.429 1437.24 722.133 1438.42C722.869 1439.58 723.781 1440.44 724.869 1441.02C725.989 1441.59 727.173 1441.88 728.421 1441.88C730.181 1441.88 731.557 1441.51 732.549 1440.78C733.541 1440.04 734.293 1439.02 734.805 1437.7H738.789C738.245 1439.91 737.109 1441.78 735.381 1443.32C733.653 1444.82 731.333 1445.58 728.421 1445.58ZM728.421 1424.22C726.565 1424.22 724.933 1424.78 723.525 1425.9C722.149 1427.02 721.301 1428.58 720.981 1430.6H735.477C735.349 1428.62 734.629 1427.06 733.317 1425.94C732.037 1424.79 730.405 1424.22 728.421 1424.22ZM757.203 1445.58C754.163 1445.58 751.699 1444.87 749.811 1443.46C747.955 1442.02 746.915 1440.06 746.691 1437.56H750.867C751.059 1438.87 751.699 1439.94 752.787 1440.78C753.907 1441.61 755.411 1442.02 757.299 1442.02C759.091 1442.02 760.419 1441.64 761.283 1440.87C762.179 1440.1 762.627 1439.22 762.627 1438.23C762.627 1436.89 762.099 1435.98 761.043 1435.5C759.987 1434.98 758.403 1434.6 756.291 1434.34C753.763 1434.06 751.667 1433.37 750.003 1432.28C748.339 1431.19 747.507 1429.56 747.507 1427.38C747.507 1425.43 748.323 1423.82 749.955 1422.54C751.587 1421.26 753.811 1420.62 756.627 1420.62C759.411 1420.62 761.603 1421.26 763.203 1422.54C764.803 1423.78 765.715 1425.58 765.939 1427.91H761.955C761.859 1426.76 761.299 1425.85 760.275 1425.18C759.283 1424.47 758.035 1424.12 756.531 1424.12C754.963 1424.12 753.747 1424.42 752.883 1425.03C752.019 1425.61 751.587 1426.38 751.587 1427.34C751.587 1428.3 752.067 1429.1 753.027 1429.74C754.019 1430.34 755.571 1430.74 757.683 1430.94C759.347 1431.13 760.867 1431.45 762.243 1431.9C763.619 1432.34 764.707 1433.05 765.507 1434.01C766.339 1434.97 766.755 1436.31 766.755 1438.04C766.786 1439.48 766.387 1440.78 765.555 1441.93C764.755 1443.05 763.635 1443.94 762.195 1444.62C760.755 1445.26 759.091 1445.58 757.203 1445.58ZM784.064 1445.58C781.184 1445.58 779.008 1444.71 777.536 1442.98C776.064 1441.26 775.328 1438.76 775.328 1435.5V1421.19H779.36V1435.02C779.36 1437.13 779.824 1438.79 780.752 1440.01C781.712 1441.19 783.152 1441.78 785.072 1441.78C786.992 1441.78 788.608 1441.14 789.92 1439.86C791.232 1438.55 791.888 1436.68 791.888 1434.25V1421.19H795.92V1445H792.56L792.128 1441.4H791.888C791.248 1442.55 790.24 1443.54 788.864 1444.38C787.488 1445.18 785.888 1445.58 784.064 1445.58ZM803.725 1445V1441.54H811.837V1415.1C811.837 1414.3 811.437 1413.9 810.637 1413.9H804.589V1410.44H811.597C812.973 1410.44 814.029 1410.81 814.765 1411.54C815.501 1412.28 815.869 1413.34 815.869 1414.71V1441.54H823.981V1445H803.725ZM845.802 1445C843.626 1445 841.914 1444.47 840.666 1443.42C839.418 1442.36 838.794 1440.46 838.794 1437.7V1424.65H832.746V1421.19H836.346C837.978 1421.19 838.922 1420.39 839.178 1418.79L839.85 1415.1H842.826V1421.19H852.33V1424.65H842.826V1437.7C842.826 1439.05 843.13 1439.99 843.738 1440.54C844.378 1441.08 845.466 1441.35 847.002 1441.35H852.33V1445H845.802Z" fill="black"/>
<path d="M149.884 50.576C147.164 50.576 144.828 49.856 142.876 48.416C140.924 46.976 139.42 44.96 138.364 42.368C137.34 39.744 136.828 36.688 136.828 33.2C136.828 29.712 137.34 26.672 138.364 24.08C139.42 21.456 140.924 19.424 142.876 17.984C144.828 16.544 147.164 15.824 149.884 15.824C152.604 15.824 154.94 16.544 156.892 17.984C158.844 19.424 160.332 21.456 161.356 24.08C162.412 26.672 162.94 29.712 162.94 33.2C162.94 36.688 162.412 39.744 161.356 42.368C160.332 44.96 158.844 46.976 156.892 48.416C154.94 49.856 152.604 50.576 149.884 50.576ZM149.884 46.784C152.54 46.784 154.684 45.6 156.316 43.232C157.98 40.864 158.812 37.52 158.812 33.2C158.812 28.88 157.98 25.536 156.316 23.168C154.684 20.8 152.54 19.616 149.884 19.616C147.196 19.616 145.036 20.8 143.404 23.168C141.772 25.536 140.956 28.88 140.956 33.2C140.956 37.52 141.772 40.864 143.404 43.232C145.036 45.6 147.196 46.784 149.884 46.784ZM168.01 60.56V26.192H171.274L171.754 30.128H172.042C172.65 28.848 173.626 27.776 174.97 26.912C176.314 26.048 177.898 25.616 179.722 25.616C181.642 25.616 183.37 26.096 184.906 27.056C186.474 28.016 187.706 29.44 188.602 31.328C189.498 33.184 189.946 35.456 189.946 38.144C189.946 40.8 189.482 43.056 188.554 44.912C187.658 46.768 186.41 48.176 184.81 49.136C183.242 50.096 181.434 50.576 179.386 50.576C177.562 50.576 176.01 50.192 174.73 49.424C173.482 48.624 172.586 47.696 172.042 46.64V60.56H168.01ZM178.906 46.736C180.922 46.736 182.586 46.032 183.898 44.624C185.21 43.184 185.866 41.008 185.866 38.096C185.866 35.184 185.21 33.024 183.898 31.616C182.586 30.176 180.922 29.456 178.906 29.456C176.89 29.456 175.226 30.176 173.914 31.616C172.602 33.024 171.946 35.184 171.946 38.096C171.946 41.008 172.602 43.184 173.914 44.624C175.226 46.032 176.89 46.736 178.906 46.736ZM207.687 50.576C205.447 50.576 203.463 50.064 201.735 49.04C200.039 47.984 198.695 46.528 197.703 44.672C196.711 42.784 196.215 40.592 196.215 38.096C196.215 35.6 196.695 33.424 197.655 31.568C198.647 29.68 200.007 28.224 201.735 27.2C203.463 26.144 205.479 25.616 207.783 25.616C210.087 25.616 212.055 26.144 213.687 27.2C215.319 28.224 216.567 29.584 217.431 31.28C218.295 32.976 218.727 34.8 218.727 36.752C218.727 37.104 218.711 37.456 218.679 37.808C218.679 38.16 218.679 38.56 218.679 39.008H200.199C200.295 40.768 200.695 42.24 201.399 43.424C202.135 44.576 203.047 45.44 204.135 46.016C205.255 46.592 206.439 46.88 207.687 46.88C209.447 46.88 210.823 46.512 211.815 45.776C212.807 45.04 213.559 44.016 214.071 42.704H218.055C217.511 44.912 216.375 46.784 214.647 48.32C212.919 49.824 210.599 50.576 207.687 50.576ZM207.687 29.216C205.831 29.216 204.199 29.776 202.791 30.896C201.415 32.016 200.567 33.584 200.247 35.6H214.743C214.615 33.616 213.895 32.064 212.583 30.944C211.303 29.792 209.671 29.216 207.687 29.216ZM225.86 50V46.544H231.956V30.848C231.956 30.048 231.572 29.648 230.804 29.648H226.484V26.192H232.292C233.348 26.192 234.196 26.48 234.836 27.056C235.476 27.632 235.796 28.48 235.796 29.6V30.608H235.988C236.372 29.008 237.092 27.776 238.148 26.912C239.236 26.048 240.74 25.616 242.66 25.616H247.028V29.888H242.084C240.132 29.888 238.628 30.544 237.572 31.856C236.516 33.136 235.988 34.784 235.988 36.8V46.544H243.476V50H225.86ZM262.993 50.576C261.105 50.576 259.537 50.24 258.289 49.568C257.041 48.896 256.113 48.016 255.505 46.928C254.897 45.808 254.593 44.592 254.593 43.28C254.593 40.848 255.473 39.008 257.233 37.76C259.025 36.48 261.409 35.84 264.385 35.84H270.913V35.36C270.913 31.2 269.009 29.12 265.201 29.12C263.665 29.12 262.369 29.456 261.313 30.128C260.289 30.8 259.633 31.856 259.345 33.296H255.217C255.377 31.696 255.905 30.32 256.801 29.168C257.729 28.016 258.913 27.136 260.353 26.528C261.793 25.92 263.409 25.616 265.201 25.616C268.593 25.616 271.057 26.512 272.593 28.304C274.161 30.064 274.945 32.416 274.945 35.36V50H271.489L271.153 46.304H270.817C270.113 47.456 269.169 48.464 267.985 49.328C266.833 50.16 265.169 50.576 262.993 50.576ZM263.713 47.024C265.249 47.024 266.545 46.656 267.601 45.92C268.689 45.184 269.505 44.208 270.049 42.992C270.625 41.776 270.913 40.448 270.913 39.008H264.721C262.545 39.008 261.009 39.376 260.113 40.112C259.249 40.848 258.817 41.824 258.817 43.04C258.817 44.288 259.233 45.264 260.065 45.968C260.897 46.672 262.113 47.024 263.713 47.024ZM283.615 50V26.192H286.975L287.407 29.792H287.647C288.287 28.64 289.295 27.664 290.671 26.864C292.047 26.032 293.631 25.616 295.423 25.616C298.335 25.616 300.511 26.48 301.951 28.208C303.423 29.936 304.159 32.432 304.159 35.696V50H300.127V36.176C300.127 34.064 299.663 32.416 298.735 31.232C297.807 30.016 296.367 29.408 294.415 29.408C292.527 29.408 290.927 30.064 289.615 31.376C288.303 32.656 287.647 34.512 287.647 36.944V50H283.615ZM321.756 50.576C319.74 50.576 317.932 50.096 316.332 49.136C314.764 48.176 313.532 46.768 312.636 44.912C311.74 43.024 311.292 40.736 311.292 38.048C311.292 35.392 311.74 33.136 312.636 31.28C313.532 29.424 314.764 28.016 316.332 27.056C317.932 26.096 319.74 25.616 321.756 25.616C323.644 25.616 325.196 25.984 326.412 26.72C327.66 27.456 328.588 28.416 329.196 29.6V15.44H333.228V50H329.916L329.484 46.304H329.196C328.556 47.616 327.612 48.656 326.364 49.424C325.116 50.192 323.58 50.576 321.756 50.576ZM322.284 46.736C324.3 46.736 325.964 46.032 327.276 44.624C328.588 43.184 329.244 41.008 329.244 38.096C329.244 35.184 328.588 33.024 327.276 31.616C325.964 30.176 324.3 29.456 322.284 29.456C320.268 29.456 318.604 30.176 317.292 31.616C316.012 33.024 315.372 35.184 315.372 38.096C315.372 41.008 316.012 43.184 317.292 44.624C318.604 46.032 320.268 46.736 322.284 46.736ZM367.318 50L377.83 16.4H382.486L392.95 50H388.534L386.086 41.648H374.182L371.734 50H367.318ZM380.038 22.064L375.19 38.288H385.078L380.23 22.064H380.038Z" fill="black"/>
<path d="M679.384 50.576C676.664 50.576 674.328 49.856 672.376 48.416C670.424 46.976 668.92 44.96 667.864 42.368C666.84 39.744 666.328 36.688 666.328 33.2C666.328 29.712 666.84 26.672 667.864 24.08C668.92 21.456 670.424 19.424 672.376 17.984C674.328 16.544 676.664 15.824 679.384 15.824C682.104 15.824 684.44 16.544 686.392 17.984C688.344 19.424 689.832 21.456 690.856 24.08C691.912 26.672 692.44 29.712 692.44 33.2C692.44 36.688 691.912 39.744 690.856 42.368C689.832 44.96 688.344 46.976 686.392 48.416C684.44 49.856 682.104 50.576 679.384 50.576ZM679.384 46.784C682.04 46.784 684.184 45.6 685.816 43.232C687.48 40.864 688.312 37.52 688.312 33.2C688.312 28.88 687.48 25.536 685.816 23.168C684.184 20.8 682.04 19.616 679.384 19.616C676.696 19.616 674.536 20.8 672.904 23.168C671.272 25.536 670.456 28.88 670.456 33.2C670.456 37.52 671.272 40.864 672.904 43.232C674.536 45.6 676.696 46.784 679.384 46.784ZM697.51 60.56V26.192H700.774L701.254 30.128H701.542C702.15 28.848 703.126 27.776 704.47 26.912C705.814 26.048 707.398 25.616 709.222 25.616C711.142 25.616 712.87 26.096 714.406 27.056C715.974 28.016 717.206 29.44 718.102 31.328C718.998 33.184 719.446 35.456 719.446 38.144C719.446 40.8 718.982 43.056 718.054 44.912C717.158 46.768 715.91 48.176 714.31 49.136C712.742 50.096 710.934 50.576 708.886 50.576C707.062 50.576 705.51 50.192 704.23 49.424C702.982 48.624 702.086 47.696 701.542 46.64V60.56H697.51ZM708.406 46.736C710.422 46.736 712.086 46.032 713.398 44.624C714.71 43.184 715.366 41.008 715.366 38.096C715.366 35.184 714.71 33.024 713.398 31.616C712.086 30.176 710.422 29.456 708.406 29.456C706.39 29.456 704.726 30.176 703.414 31.616C702.102 33.024 701.446 35.184 701.446 38.096C701.446 41.008 702.102 43.184 703.414 44.624C704.726 46.032 706.39 46.736 708.406 46.736ZM737.187 50.576C734.947 50.576 732.963 50.064 731.235 49.04C729.539 47.984 728.195 46.528 727.203 44.672C726.211 42.784 725.715 40.592 725.715 38.096C725.715 35.6 726.195 33.424 727.155 31.568C728.147 29.68 729.507 28.224 731.235 27.2C732.963 26.144 734.979 25.616 737.283 25.616C739.587 25.616 741.555 26.144 743.187 27.2C744.819 28.224 746.067 29.584 746.931 31.28C747.795 32.976 748.227 34.8 748.227 36.752C748.227 37.104 748.211 37.456 748.179 37.808C748.179 38.16 748.179 38.56 748.179 39.008H729.699C729.795 40.768 730.195 42.24 730.899 43.424C731.635 44.576 732.547 45.44 733.635 46.016C734.755 46.592 735.939 46.88 737.187 46.88C738.947 46.88 740.323 46.512 741.315 45.776C742.307 45.04 743.059 44.016 743.571 42.704H747.555C747.011 44.912 745.875 46.784 744.147 48.32C742.419 49.824 740.099 50.576 737.187 50.576ZM737.187 29.216C735.331 29.216 733.699 29.776 732.291 30.896C730.915 32.016 730.067 33.584 729.747 35.6H744.243C744.115 33.616 743.395 32.064 742.083 30.944C740.803 29.792 739.171 29.216 737.187 29.216ZM755.36 50V46.544H761.456V30.848C761.456 30.048 761.072 29.648 760.304 29.648H755.984V26.192H761.792C762.848 26.192 763.696 26.48 764.336 27.056C764.976 27.632 765.296 28.48 765.296 29.6V30.608H765.488C765.872 29.008 766.592 27.776 767.648 26.912C768.736 26.048 770.24 25.616 772.16 25.616H776.528V29.888H771.584C769.632 29.888 768.128 30.544 767.072 31.856C766.016 33.136 765.488 34.784 765.488 36.8V46.544H772.976V50H755.36ZM792.493 50.576C790.605 50.576 789.037 50.24 787.789 49.568C786.541 48.896 785.613 48.016 785.005 46.928C784.397 45.808 784.093 44.592 784.093 43.28C784.093 40.848 784.973 39.008 786.733 37.76C788.525 36.48 790.909 35.84 793.885 35.84H800.413V35.36C800.413 31.2 798.509 29.12 794.701 29.12C793.165 29.12 791.869 29.456 790.813 30.128C789.789 30.8 789.133 31.856 788.845 33.296H784.717C784.877 31.696 785.405 30.32 786.301 29.168C787.229 28.016 788.413 27.136 789.853 26.528C791.293 25.92 792.909 25.616 794.701 25.616C798.093 25.616 800.557 26.512 802.093 28.304C803.661 30.064 804.445 32.416 804.445 35.36V50H800.989L800.653 46.304H800.317C799.613 47.456 798.669 48.464 797.485 49.328C796.333 50.16 794.669 50.576 792.493 50.576ZM793.213 47.024C794.749 47.024 796.045 46.656 797.101 45.92C798.189 45.184 799.005 44.208 799.549 42.992C800.125 41.776 800.413 40.448 800.413 39.008H794.221C792.045 39.008 790.509 39.376 789.613 40.112C788.749 40.848 788.317 41.824 788.317 43.04C788.317 44.288 788.733 45.264 789.565 45.968C790.397 46.672 791.613 47.024 793.213 47.024ZM813.115 50V26.192H816.475L816.907 29.792H817.147C817.787 28.64 818.795 27.664 820.171 26.864C821.547 26.032 823.131 25.616 824.923 25.616C827.835 25.616 830.011 26.48 831.451 28.208C832.923 29.936 833.659 32.432 833.659 35.696V50H829.627V36.176C829.627 34.064 829.163 32.416 828.235 31.232C827.307 30.016 825.867 29.408 823.915 29.408C822.027 29.408 820.427 30.064 819.115 31.376C817.803 32.656 817.147 34.512 817.147 36.944V50H813.115ZM851.256 50.576C849.24 50.576 847.432 50.096 845.832 49.136C844.264 48.176 843.032 46.768 842.136 44.912C841.24 43.024 840.792 40.736 840.792 38.048C840.792 35.392 841.24 33.136 842.136 31.28C843.032 29.424 844.264 28.016 845.832 27.056C847.432 26.096 849.24 25.616 851.256 25.616C853.144 25.616 854.696 25.984 855.912 26.72C857.16 27.456 858.088 28.416 858.696 29.6V15.44H862.728V50H859.416L858.984 46.304H858.696C858.056 47.616 857.112 48.656 855.864 49.424C854.616 50.192 853.08 50.576 851.256 50.576ZM851.784 46.736C853.8 46.736 855.464 46.032 856.776 44.624C858.088 43.184 858.744 41.008 858.744 38.096C858.744 35.184 858.088 33.024 856.776 31.616C855.464 30.176 853.8 29.456 851.784 29.456C849.768 29.456 848.104 30.176 846.792 31.616C845.512 33.024 844.872 35.184 844.872 38.096C844.872 41.008 845.512 43.184 846.792 44.624C848.104 46.032 849.768 46.736 851.784 46.736ZM898.402 50V16.4H909.586C913.074 16.4 915.698 17.2 917.458 18.8C919.218 20.4 920.098 22.448 920.098 24.944C920.098 26.896 919.57 28.512 918.514 29.792C917.458 31.04 916.274 31.92 914.962 32.432V32.768C916.53 33.28 917.906 34.208 919.09 35.552C920.274 36.896 920.866 38.624 920.866 40.736C920.866 42.464 920.434 44.032 919.57 45.44C918.738 46.816 917.506 47.92 915.874 48.752C914.274 49.584 912.306 50 909.97 50H898.402ZM902.434 30.896H909.298C911.442 30.896 913.074 30.432 914.194 29.504C915.346 28.544 915.922 27.168 915.922 25.376C915.922 23.68 915.362 22.368 914.242 21.44C913.122 20.512 911.426 20.048 909.154 20.048H902.434V30.896ZM902.434 46.304H909.538C911.842 46.304 913.618 45.792 914.866 44.768C916.114 43.712 916.738 42.24 916.738 40.352C916.738 38.464 916.082 37.008 914.77 35.984C913.458 34.928 911.682 34.4 909.442 34.4H902.434V46.304Z" fill="black"/>
<path d="M755.619 1772.58C752.899 1772.58 750.563 1771.86 748.611 1770.42C746.659 1768.98 745.155 1766.96 744.099 1764.37C743.075 1761.74 742.563 1758.69 742.563 1755.2C742.563 1751.71 743.075 1748.67 744.099 1746.08C745.155 1743.46 746.659 1741.42 748.611 1739.98C750.563 1738.54 752.899 1737.82 755.619 1737.82C758.339 1737.82 760.675 1738.54 762.627 1739.98C764.579 1741.42 766.067 1743.46 767.091 1746.08C768.147 1748.67 768.675 1751.71 768.675 1755.2C768.675 1758.69 768.147 1761.74 767.091 1764.37C766.067 1766.96 764.579 1768.98 762.627 1770.42C760.675 1771.86 758.339 1772.58 755.619 1772.58ZM755.619 1768.78C758.275 1768.78 760.419 1767.6 762.051 1765.23C763.715 1762.86 764.547 1759.52 764.547 1755.2C764.547 1750.88 763.715 1747.54 762.051 1745.17C760.419 1742.8 758.275 1741.62 755.619 1741.62C752.931 1741.62 750.771 1742.8 749.139 1745.17C747.507 1747.54 746.691 1750.88 746.691 1755.2C746.691 1759.52 747.507 1762.86 749.139 1765.23C750.771 1767.6 752.931 1768.78 755.619 1768.78ZM774.368 1772V1738.4H795.344V1742.14H778.4V1753.86H792.896V1757.46H778.4V1772H774.368Z" fill="black"/>
<path d="M927.455 1772.58C925.087 1772.58 923.023 1772.13 921.263 1771.23C919.535 1770.34 918.191 1769.09 917.231 1767.49C916.303 1765.89 915.823 1764.02 915.791 1761.87H920.015C920.047 1763.79 920.687 1765.46 921.935 1766.86C923.215 1768.24 925.055 1768.93 927.455 1768.93C929.663 1768.93 931.359 1768.4 932.543 1767.34C933.759 1766.26 934.367 1764.96 934.367 1763.46C934.367 1762.21 934.079 1761.17 933.503 1760.34C932.927 1759.47 931.983 1758.72 930.671 1758.08C929.391 1757.41 927.663 1756.72 925.487 1756.02C922.415 1755.09 920.175 1753.82 918.767 1752.22C917.359 1750.62 916.655 1748.64 916.655 1746.27C916.655 1744.67 917.071 1743.23 917.903 1741.95C918.735 1740.67 919.935 1739.66 921.503 1738.93C923.071 1738.19 924.975 1737.82 927.215 1737.82C929.327 1737.82 931.167 1738.22 932.735 1739.02C934.335 1739.79 935.567 1740.88 936.431 1742.29C937.327 1743.7 937.775 1745.31 937.775 1747.14H933.551C933.551 1746.24 933.311 1745.36 932.831 1744.5C932.351 1743.63 931.631 1742.91 930.671 1742.34C929.711 1741.76 928.495 1741.47 927.023 1741.47C925.263 1741.47 923.791 1741.9 922.607 1742.77C921.423 1743.6 920.831 1744.75 920.831 1746.22C920.831 1747.34 921.087 1748.29 921.599 1749.06C922.143 1749.82 923.023 1750.53 924.239 1751.17C925.455 1751.78 927.103 1752.43 929.183 1753.14C931.135 1753.78 932.799 1754.53 934.175 1755.39C935.583 1756.22 936.655 1757.26 937.391 1758.51C938.159 1759.76 938.543 1761.31 938.543 1763.17C938.543 1764.99 938.079 1766.61 937.151 1768.02C936.223 1769.42 934.927 1770.54 933.263 1771.38C931.599 1772.18 929.663 1772.58 927.455 1772.58ZM945.868 1772V1738.4H966.844V1742.14H949.9V1753.86H964.396V1757.46H949.9V1772H945.868Z" fill="black"/>
<path d="M1086.03 1772V1768.69L1103.41 1742.05H1086.27V1738.4H1108.06V1741.71L1090.64 1768.35H1108.25V1772H1086.03ZM1115.87 1772V1738.4H1136.84V1742.14H1119.9V1753.86H1134.4V1757.46H1119.9V1772H1115.87Z" fill="black"/>
<line x1="1585.5" y1="850" x2="1585.5" y2="998" stroke="black"/>
<line x1="685" y1="1807.5" x2="1196" y2="1807.5" stroke="black"/>
<line x1="856.5" y1="1704" x2="856.5" y2="1935.01" stroke="black"/>
<line x1="1026.99" y1="1704" x2="1026.99" y2="1935.01" stroke="black"/>
<g filter="url(#filter11_d_1_65)">
<path d="M530 1816C527.791 1816 526 1817.79 526 1820C526 1822.21 527.791 1824 530 1824V1816ZM636 1820L596 1796.91V1843.09L636 1820ZM530 1824H600V1816H530V1824Z" fill="#747474"/>
</g>
<defs>
<filter id="filter0_d_1_65" x="522" y="1509.91" width="118" height="54.188" filterUnits="userSpaceOnUse" color-interpolation-filters="sRGB">
<feFlood flood-opacity="0" result="BackgroundImageFix"/>
<feColorMatrix in="SourceAlpha" type="matrix" values="0 0 0 0 0 0 0 0 0 0 0 0 0 0 0 0 0 0 127 0" result="hardAlpha"/>
<feOffset dy="4"/>
<feGaussianBlur stdDeviation="2"/>
<feComposite in2="hardAlpha" operator="out"/>
<feColorMatrix type="matrix" values="0 0 0 0 0 0 0 0 0 0 0 0 0 0 0 0 0 0 0.25 0"/>
<feBlend mode="normal" in2="BackgroundImageFix" result="effect1_dropShadow_1_65"/>
<feBlend mode="normal" in="SourceGraphic" in2="effect1_dropShadow_1_65" result="shape"/>
</filter>
<filter id="filter1_d_1_65" x="767.97" y="214.88" width="54.188" height="290" filterUnits="userSpaceOnUse" color-interpolation-filters="sRGB">
<feFlood flood-opacity="0" result="BackgroundImageFix"/>
<feColorMatrix in="SourceAlpha" type="matrix" values="0 0 0 0 0 0 0 0 0 0 0 0 0 0 0 0 0 0 127 0" result="hardAlpha"/>
<feOffset dy="4"/>
<feGaussianBlur stdDeviation="2"/>
<feComposite in2="hardAlpha" operator="out"/>
<feColorMatrix type="matrix" values="0 0 0 0 0 0 0 0 0 0 0 0 0 0 0 0 0 0 0.25 0"/>
<feBlend mode="normal" in2="BackgroundImageFix" result="effect1_dropShadow_1_65"/>
<feBlend mode="normal" in="SourceGraphic" in2="effect1_dropShadow_1_65" result="shape"/>
</filter>
<filter id="filter2_d_1_65" x="522" y="1314" width="16" height="518" filterUnits="userSpaceOnUse" color-interpolation-filters="sRGB">
<feFlood flood-opacity="0" result="BackgroundImageFix"/>
<feColorMatrix in="SourceAlpha" type="matrix" values="0 0 0 0 0 0 0 0 0 0 0 0 0 0 0 0 0 0 127 0" result="hardAlpha"/>
<feOffset dy="4"/>
<feGaussianBlur stdDeviation="2"/>
<feComposite in2="hardAlpha" operator="out"/>
<feColorMatrix type="matrix" values="0 0 0 0 0 0 0 0 0 0 0 0 0 0 0 0 0 0 0.25 0"/>
<feBlend mode="normal" in2="BackgroundImageFix" result="effect1_dropShadow_1_65"/>
<feBlend mode="normal" in="SourceGraphic" in2="effect1_dropShadow_1_65" result="shape"/>
</filter>
<filter id="filter3_d_1_65" x="125.998" y="529.179" width="807.987" height="797.655" filterUnits="userSpaceOnUse" color-interpolation-filters="sRGB">
<feFlood flood-opacity="0" result="BackgroundImageFix"/>
<feColorMatrix in="SourceAlpha" type="matrix" values="0 0 0 0 0 0 0 0 0 0 0 0 0 0 0 0 0 0 127 0" result="hardAlpha"/>
<feOffset dy="4"/>
<feGaussianBlur stdDeviation="2"/>
<feComposite in2="hardAlpha" operator="out"/>
<feColorMatrix type="matrix" values="0 0 0 0 0 0 0 0 0 0 0 0 0 0 0 0 0 0 0.25 0"/>
<feBlend mode="normal" in2="BackgroundImageFix" result="effect1_dropShadow_1_65"/>
<feBlend mode="normal" in="SourceGraphic" in2="effect1_dropShadow_1_65" result="shape"/>
</filter>
<filter id="filter4_d_1_65" x="99" y="68" width="332" height="156" filterUnits="userSpaceOnUse" color-interpolation-filters="sRGB">
<feFlood flood-opacity="0" result="BackgroundImageFix"/>
<feColorMatrix in="SourceAlpha" type="matrix" values="0 0 0 0 0 0 0 0 0 0 0 0 0 0 0 0 0 0 127 0" result="hardAlpha"/>
<feOffset dy="4"/>
<feGaussianBlur stdDeviation="2"/>
<feComposite in2="hardAlpha" operator="out"/>
<feColorMatrix type="matrix" values="0 0 0 0 0 0 0 0 0 0 0 0 0 0 0 0 0 0 0.25 0"/>
<feBlend mode="normal" in2="BackgroundImageFix" result="effect1_dropShadow_1_65"/>
<feBlend mode="normal" in="SourceGraphic" in2="effect1_dropShadow_1_65" result="shape"/>
</filter>
<filter id="filter5_d_1_65" x="681" y="1459" width="332" height="156" filterUnits="userSpaceOnUse" color-interpolation-filters="sRGB">
<feFlood flood-opacity="0" result="BackgroundImageFix"/>
<feColorMatrix in="SourceAlpha" type="matrix" values="0 0 0 0 0 0 0 0 0 0 0 0 0 0 0 0 0 0 127 0" result="hardAlpha"/>
<feOffset dy="4"/>
<feGaussianBlur stdDeviation="2"/>
<feComposite in2="hardAlpha" operator="out"/>
<feColorMatrix type="matrix" values="0 0 0 0 0 0 0 0 0 0 0 0 0 0 0 0 0 0 0.25 0"/>
<feBlend mode="normal" in2="BackgroundImageFix" result="effect1_dropShadow_1_65"/>
<feBlend mode="normal" in="SourceGraphic" in2="effect1_dropShadow_1_65" result="shape"/>
</filter>
<filter id="filter6_d_1_65" x="681" y="1704" width="519" height="239" filterUnits="userSpaceOnUse" color-interpolation-filters="sRGB">
<feFlood flood-opacity="0" result="BackgroundImageFix"/>
<feColorMatrix in="SourceAlpha" type="matrix" values="0 0 0 0 0 0 0 0 0 0 0 0 0 0 0 0 0 0 127 0" result="hardAlpha"/>
<feOffset dy="4"/>
<feGaussianBlur stdDeviation="2"/>
<feComposite in2="hardAlpha" operator="out"/>
<feColorMatrix type="matrix" values="0 0 0 0 0 0 0 0 0 0 0 0 0 0 0 0 0 0 0.25 0"/>
<feBlend mode="normal" in2="BackgroundImageFix" result="effect1_dropShadow_1_65"/>
<feBlend mode="normal" in="SourceGraphic" in2="effect1_dropShadow_1_65" result="shape"/>
</filter>
<filter id="filter7_d_1_65" x="629" y="68" width="331" height="156" filterUnits="userSpaceOnUse" color-interpolation-filters="sRGB">
<feFlood flood-opacity="0" result="BackgroundImageFix"/>
<feColorMatrix in="SourceAlpha" type="matrix" values="0 0 0 0 0 0 0 0 0 0 0 0 0 0 0 0 0 0 127 0" result="hardAlpha"/>
<feOffset dy="4"/>
<feGaussianBlur stdDeviation="2"/>
<feComposite in2="hardAlpha" operator="out"/>
<feColorMatrix type="matrix" values="0 0 0 0 0 0 0 0 0 0 0 0 0 0 0 0 0 0 0.25 0"/>
<feBlend mode="normal" in2="BackgroundImageFix" result="effect1_dropShadow_1_65"/>
<feBlend mode="normal" in="SourceGraphic" in2="effect1_dropShadow_1_65" result="shape"/>
</filter>
<filter id="filter8_d_1_65" x="1140" y="850" width="889" height="156" filterUnits="userSpaceOnUse" color-interpolation-filters="sRGB">
<feFlood flood-opacity="0" result="BackgroundImageFix"/>
<feColorMatrix in="SourceAlpha" type="matrix" values="0 0 0 0 0 0 0 0 0 0 0 0 0 0 0 0 0 0 127 0" result="hardAlpha"/>
<feOffset dy="4"/>
<feGaussianBlur stdDeviation="2"/>
<feComposite in2="hardAlpha" operator="out"/>
<feColorMatrix type="matrix" values="0 0 0 0 0 0 0 0 0 0 0 0 0 0 0 0 0 0 0.25 0"/>
<feBlend mode="normal" in2="BackgroundImageFix" result="effect1_dropShadow_1_65"/>
<feBlend mode="normal" in="SourceGraphic" in2="effect1_dropShadow_1_65" result="shape"/>
</filter>
<filter id="filter9_d_1_65" x="237.906" y="215.996" width="54.188" height="290" filterUnits="userSpaceOnUse" color-interpolation-filters="sRGB">
<feFlood flood-opacity="0" result="BackgroundImageFix"/>
<feColorMatrix in="SourceAlpha" type="matrix" values="0 0 0 0 0 0 0 0 0 0 0 0 0 0 0 0 0 0 127 0" result="hardAlpha"/>
<feOffset dy="4"/>
<feGaussianBlur stdDeviation="2"/>
<feComposite in2="hardAlpha" operator="out"/>
<feColorMatrix type="matrix" values="0 0 0 0 0 0 0 0 0 0 0 0 0 0 0 0 0 0 0.25 0"/>
<feBlend mode="normal" in2="BackgroundImageFix" result="effect1_dropShadow_1_65"/>
<feBlend mode="normal" in="SourceGraphic" in2="effect1_dropShadow_1_65" result="shape"/>
</filter>
<filter id="filter10_d_1_65" x="858" y="900.781" width="290" height="54.188" filterUnits="userSpaceOnUse" color-interpolation-filters="sRGB">
<feFlood flood-opacity="0" result="BackgroundImageFix"/>
<feColorMatrix in="SourceAlpha" type="matrix" values="0 0 0 0 0 0 0 0 0 0 0 0 0 0 0 0 0 0 127 0" result="hardAlpha"/>
<feOffset dy="4"/>
<feGaussianBlur stdDeviation="2"/>
<feComposite in2="hardAlpha" operator="out"/>
<feColorMatrix type="matrix" values="0 0 0 0 0 0 0 0 0 0 0 0 0 0 0 0 0 0 0.25 0"/>
<feBlend mode="normal" in2="BackgroundImageFix" result="effect1_dropShadow_1_65"/>
<feBlend mode="normal" in="SourceGraphic" in2="effect1_dropShadow_1_65" result="shape"/>
</filter>
<filter id="filter11_d_1_65" x="522" y="1796.91" width="118" height="54.188" filterUnits="userSpaceOnUse" color-interpolation-filters="sRGB">
<feFlood flood-opacity="0" result="BackgroundImageFix"/>
<feColorMatrix in="SourceAlpha" type="matrix" values="0 0 0 0 0 0 0 0 0 0 0 0 0 0 0 0 0 0 127 0" result="hardAlpha"/>
<feOffset dy="4"/>
<feGaussianBlur stdDeviation="2"/>
<feComposite in2="hardAlpha" operator="out"/>
<feColorMatrix type="matrix" values="0 0 0 0 0 0 0 0 0 0 0 0 0 0 0 0 0 0 0.25 0"/>
<feBlend mode="normal" in2="BackgroundImageFix" result="effect1_dropShadow_1_65"/>
<feBlend mode="normal" in="SourceGraphic" in2="effect1_dropShadow_1_65" result="shape"/>
</filter>
<clipPath id="clip0_1_65">
<rect width="800" height="800" fill="white" transform="translate(130 524)"/>
</clipPath>
</defs>
</svg>
