<svg width="1836" height="1636" viewBox="0 0 1836 1636" fill="none" xmlns="http://www.w3.org/2000/svg">
<g filter="url(#filter0_d_7_40)">
<path d="M368 470.996L385.321 440.996H350.68L368 470.996ZM365 188.996L365 443.996H371L371 188.996H365Z" fill="#747474"/>
</g>
<g filter="url(#filter1_d_7_40)">
<path d="M898 470L915.321 440H880.679L898 470ZM895 190V443H901V190H895Z" fill="#747474"/>
</g>
<g filter="url(#filter2_d_7_40)">
<path d="M633 1291V1503" stroke="#747474" stroke-width="6" stroke-linecap="square"/>
</g>
<g filter="url(#filter3_d_7_40)">
<path d="M1015.47 502.3L802.333 522.833C788.8 524.133 774.2 535.6 769.733 548.433L633.333 940.067L496.267 548.4C491.8 535.6 477.167 524.133 463.667 522.833L250.533 502.3C237.033 501 229.8 510.3 234.367 523.1L502.5 1268.67C507.1 1281.43 521.867 1291.83 535.433 1291.83H742.867H744.167C746.6 1291.83 748.633 1291.17 750.133 1290C754.267 1287.93 757.833 1284.37 759.3 1280.27L760.6 1276.67L1031.6 523.1C1036.2 510.3 1028.97 501 1015.47 502.3Z" fill="#E6C55A"/>
<path d="M632.861 940.232L633.334 941.584L633.806 940.231L770.205 548.598C772.401 542.291 777.1 536.29 782.942 531.702C788.785 527.113 795.73 523.97 802.381 523.331L802.333 522.833L802.381 523.331L1015.51 502.798C1022.15 502.159 1027.14 504.129 1029.93 507.719C1032.71 511.309 1033.39 516.642 1031.13 522.931L760.13 1276.5L760.129 1276.5L758.83 1280.1L758.829 1280.1C757.415 1284.05 753.954 1287.53 749.91 1289.55L749.865 1289.58L749.826 1289.61C748.429 1290.69 746.509 1291.33 744.167 1291.33H742.867H535.433C528.773 1291.33 521.788 1288.78 515.892 1284.63C509.996 1280.48 505.229 1274.77 502.971 1268.5L234.838 522.932C234.838 522.932 234.837 522.932 234.837 522.931C232.594 516.642 233.279 511.31 236.07 507.719C238.861 504.129 243.853 502.159 250.485 502.798C250.485 502.798 250.485 502.798 250.485 502.798L463.619 523.331C470.253 523.97 477.199 527.113 483.046 531.698C488.893 536.282 493.6 542.275 495.795 548.565L495.795 548.565L632.861 940.232Z" stroke="black"/>
</g>
<path d="M577.049 1232L591.066 1187.2H597.274L611.226 1232H605.338L602.074 1220.86H586.202L582.938 1232H577.049ZM594.01 1194.75L587.546 1216.38H600.73L594.266 1194.75H594.01ZM618.881 1232V1187.2H624.257V1227.14H646.977V1232H618.881ZM670.824 1232.77C667.837 1232.77 665.17 1232.15 662.824 1230.91C660.52 1229.67 658.685 1227.8 657.32 1225.28C655.997 1222.72 655.336 1219.52 655.336 1215.68V1187.2H660.712V1215.87C660.712 1219.71 661.65 1222.68 663.528 1224.77C665.405 1226.86 667.88 1227.9 670.952 1227.9C674.024 1227.9 676.477 1226.86 678.312 1224.77C680.146 1222.68 681.064 1219.71 681.064 1215.87V1187.2H686.44V1215.68C686.44 1219.52 685.757 1222.72 684.392 1225.28C683.026 1227.8 681.17 1229.67 678.824 1230.91C676.477 1232.15 673.81 1232.77 670.824 1232.77Z" fill="black"/>
<g filter="url(#filter4_d_7_40)">
<rect x="273" y="80" width="191" height="110" rx="10" fill="#CCEAFF"/>
<rect x="273.5" y="80.5" width="190" height="109" rx="9.5" stroke="black"/>
</g>
<g filter="url(#filter5_d_7_40)">
<rect x="788" y="1457" width="191" height="110" rx="10" fill="#BBFFCF"/>
<rect x="788.5" y="1457.5" width="190" height="109" rx="9.5" stroke="black"/>
</g>
<g filter="url(#filter6_d_7_40)">
<path d="M4 1467C4 1461.48 8.47715 1457 14 1457H467C472.523 1457 477 1461.48 477 1467V1540H4V1467Z" fill="#D9D9D9"/>
<path d="M14 1457.5H467C472.247 1457.5 476.5 1461.75 476.5 1467V1539.5H4.5V1467C4.5 1461.75 8.75329 1457.5 14 1457.5Z" stroke="black"/>
</g>
<g filter="url(#filter7_d_7_40)">
<rect x="1247" y="840" width="585" height="114" rx="10" fill="#D9D9D9"/>
<rect x="1247.5" y="840.5" width="584" height="113" rx="9.5" stroke="black"/>
</g>
<g filter="url(#filter8_d_7_40)">
<path d="M965 897L995 914.321V879.679L965 897ZM1247 894H992V900H1247V894Z" fill="#747474"/>
</g>
<path d="M1261.4 817.576C1258.68 817.576 1256.34 816.856 1254.39 815.416C1252.44 813.976 1250.94 811.96 1249.88 809.368C1248.86 806.744 1248.34 803.688 1248.34 800.2C1248.34 796.712 1248.86 793.672 1249.88 791.08C1250.94 788.456 1252.44 786.424 1254.39 784.984C1256.34 783.544 1258.68 782.824 1261.4 782.824C1264.12 782.824 1266.46 783.544 1268.41 784.984C1270.36 786.424 1271.85 788.456 1272.87 791.08C1273.93 793.672 1274.46 796.712 1274.46 800.2C1274.46 803.688 1273.93 806.744 1272.87 809.368C1271.85 811.96 1270.36 813.976 1268.41 815.416C1266.46 816.856 1264.12 817.576 1261.4 817.576ZM1261.4 813.784C1264.06 813.784 1266.2 812.6 1267.83 810.232C1269.5 807.864 1270.33 804.52 1270.33 800.2C1270.33 795.88 1269.5 792.536 1267.83 790.168C1266.2 787.8 1264.06 786.616 1261.4 786.616C1258.71 786.616 1256.55 787.8 1254.92 790.168C1253.29 792.536 1252.47 795.88 1252.47 800.2C1252.47 804.52 1253.29 807.864 1254.92 810.232C1256.55 812.6 1258.71 813.784 1261.4 813.784ZM1279.53 827.56V793.192H1282.79L1283.27 797.128H1283.56C1284.17 795.848 1285.14 794.776 1286.49 793.912C1287.83 793.048 1289.41 792.616 1291.24 792.616C1293.16 792.616 1294.89 793.096 1296.42 794.056C1297.99 795.016 1299.22 796.44 1300.12 798.328C1301.01 800.184 1301.46 802.456 1301.46 805.144C1301.46 807.8 1301 810.056 1300.07 811.912C1299.17 813.768 1297.93 815.176 1296.33 816.136C1294.76 817.096 1292.95 817.576 1290.9 817.576C1289.08 817.576 1287.53 817.192 1286.25 816.424C1285 815.624 1284.1 814.696 1283.56 813.64V827.56H1279.53ZM1290.42 813.736C1292.44 813.736 1294.1 813.032 1295.41 811.624C1296.73 810.184 1297.38 808.008 1297.38 805.096C1297.38 802.184 1296.73 800.024 1295.41 798.616C1294.1 797.176 1292.44 796.456 1290.42 796.456C1288.41 796.456 1286.74 797.176 1285.43 798.616C1284.12 800.024 1283.46 802.184 1283.46 805.096C1283.46 808.008 1284.12 810.184 1285.43 811.624C1286.74 813.032 1288.41 813.736 1290.42 813.736ZM1319.2 817.576C1316.96 817.576 1314.98 817.064 1313.25 816.04C1311.55 814.984 1310.21 813.528 1309.22 811.672C1308.23 809.784 1307.73 807.592 1307.73 805.096C1307.73 802.6 1308.21 800.424 1309.17 798.568C1310.16 796.68 1311.52 795.224 1313.25 794.2C1314.98 793.144 1316.99 792.616 1319.3 792.616C1321.6 792.616 1323.57 793.144 1325.2 794.2C1326.83 795.224 1328.08 796.584 1328.95 798.28C1329.81 799.976 1330.24 801.8 1330.24 803.752C1330.24 804.104 1330.23 804.456 1330.19 804.808C1330.19 805.16 1330.19 805.56 1330.19 806.008H1311.71C1311.81 807.768 1312.21 809.24 1312.91 810.424C1313.65 811.576 1314.56 812.44 1315.65 813.016C1316.77 813.592 1317.95 813.88 1319.2 813.88C1320.96 813.88 1322.34 813.512 1323.33 812.776C1324.32 812.04 1325.07 811.016 1325.59 809.704H1329.57C1329.03 811.912 1327.89 813.784 1326.16 815.32C1324.43 816.824 1322.11 817.576 1319.2 817.576ZM1319.2 796.216C1317.35 796.216 1315.71 796.776 1314.31 797.896C1312.93 799.016 1312.08 800.584 1311.76 802.6H1326.26C1326.13 800.616 1325.41 799.064 1324.1 797.944C1322.82 796.792 1321.19 796.216 1319.2 796.216ZM1337.38 817V813.544H1343.47V797.848C1343.47 797.048 1343.09 796.648 1342.32 796.648H1338V793.192H1343.81C1344.86 793.192 1345.71 793.48 1346.35 794.056C1346.99 794.632 1347.31 795.48 1347.31 796.6V797.608H1347.5C1347.89 796.008 1348.61 794.776 1349.66 793.912C1350.75 793.048 1352.26 792.616 1354.18 792.616H1358.54V796.888H1353.6C1351.65 796.888 1350.14 797.544 1349.09 798.856C1348.03 800.136 1347.5 801.784 1347.5 803.8V813.544H1354.99V817H1337.38ZM1374.51 817.576C1372.62 817.576 1371.05 817.24 1369.81 816.568C1368.56 815.896 1367.63 815.016 1367.02 813.928C1366.41 812.808 1366.11 811.592 1366.11 810.28C1366.11 807.848 1366.99 806.008 1368.75 804.76C1370.54 803.48 1372.93 802.84 1375.9 802.84H1382.43V802.36C1382.43 798.2 1380.53 796.12 1376.72 796.12C1375.18 796.12 1373.89 796.456 1372.83 797.128C1371.81 797.8 1371.15 798.856 1370.86 800.296H1366.73C1366.89 798.696 1367.42 797.32 1368.32 796.168C1369.25 795.016 1370.43 794.136 1371.87 793.528C1373.31 792.92 1374.93 792.616 1376.72 792.616C1380.11 792.616 1382.57 793.512 1384.11 795.304C1385.68 797.064 1386.46 799.416 1386.46 802.36V817H1383.01L1382.67 813.304H1382.33C1381.63 814.456 1380.69 815.464 1379.5 816.328C1378.35 817.16 1376.69 817.576 1374.51 817.576ZM1375.23 814.024C1376.77 814.024 1378.06 813.656 1379.12 812.92C1380.21 812.184 1381.02 811.208 1381.57 809.992C1382.14 808.776 1382.43 807.448 1382.43 806.008H1376.24C1374.06 806.008 1372.53 806.376 1371.63 807.112C1370.77 807.848 1370.33 808.824 1370.33 810.04C1370.33 811.288 1370.75 812.264 1371.58 812.968C1372.41 813.672 1373.63 814.024 1375.23 814.024ZM1407.8 817C1405.63 817 1403.91 816.472 1402.67 815.416C1401.42 814.36 1400.79 812.456 1400.79 809.704V796.648H1394.75V793.192H1398.35C1399.98 793.192 1400.92 792.392 1401.18 790.792L1401.85 787.096H1404.83V793.192H1414.33V796.648H1404.83V809.704C1404.83 811.048 1405.13 811.992 1405.74 812.536C1406.38 813.08 1407.47 813.352 1409 813.352H1414.33V817H1407.8ZM1433.8 788.968C1432.84 788.968 1432.04 788.648 1431.4 788.008C1430.76 787.368 1430.44 786.6 1430.44 785.704C1430.44 784.776 1430.76 784.008 1431.4 783.4C1432.04 782.76 1432.84 782.44 1433.8 782.44C1434.73 782.44 1435.51 782.76 1436.15 783.4C1436.82 784.008 1437.16 784.776 1437.16 785.704C1437.16 786.6 1436.82 787.368 1436.15 788.008C1435.51 788.648 1434.73 788.968 1433.8 788.968ZM1424.49 817V813.544H1432.07V797.848C1432.07 797.048 1431.67 796.648 1430.87 796.648H1425.3V793.192H1431.83C1434.68 793.192 1436.1 794.616 1436.1 797.464V813.544H1443.69V817H1424.49ZM1462.87 817.576C1460.63 817.576 1458.64 817.064 1456.92 816.04C1455.19 815.016 1453.83 813.576 1452.84 811.72C1451.84 809.832 1451.35 807.624 1451.35 805.096C1451.35 802.568 1451.84 800.376 1452.84 798.52C1453.83 796.632 1455.19 795.176 1456.92 794.152C1458.64 793.128 1460.63 792.616 1462.87 792.616C1465.11 792.616 1467.09 793.128 1468.82 794.152C1470.55 795.176 1471.91 796.632 1472.9 798.52C1473.89 800.376 1474.39 802.568 1474.39 805.096C1474.39 807.624 1473.89 809.832 1472.9 811.72C1471.91 813.576 1470.55 815.016 1468.82 816.04C1467.09 817.064 1465.11 817.576 1462.87 817.576ZM1462.87 813.736C1464.24 813.736 1465.49 813.432 1466.61 812.824C1467.73 812.216 1468.61 811.272 1469.25 809.992C1469.92 808.712 1470.26 807.08 1470.26 805.096C1470.26 803.112 1469.92 801.48 1469.25 800.2C1468.61 798.92 1467.73 797.976 1466.61 797.368C1465.49 796.76 1464.24 796.456 1462.87 796.456C1461.52 796.456 1460.29 796.76 1459.17 797.368C1458.05 797.976 1457.16 798.92 1456.48 800.2C1455.81 801.48 1455.48 803.112 1455.48 805.096C1455.48 808.072 1456.2 810.264 1457.64 811.672C1459.08 813.048 1460.82 813.736 1462.87 813.736ZM1481.47 817V793.192H1484.83L1485.27 796.792H1485.51C1486.15 795.64 1487.15 794.664 1488.53 793.864C1489.91 793.032 1491.49 792.616 1493.28 792.616C1496.19 792.616 1498.37 793.48 1499.81 795.208C1501.28 796.936 1502.02 799.432 1502.02 802.696V817H1497.99V803.176C1497.99 801.064 1497.52 799.416 1496.59 798.232C1495.67 797.016 1494.23 796.408 1492.27 796.408C1490.39 796.408 1488.79 797.064 1487.47 798.376C1486.16 799.656 1485.51 801.512 1485.51 803.944V817H1481.47Z" fill="black"/>
<path d="M8.368 1442V1408.4H29.344V1412.14H12.4V1423.86H26.896V1427.46H12.4V1442H8.368ZM36.3813 1442V1438.54H44.4933V1412.1C44.4933 1411.3 44.0933 1410.9 43.2933 1410.9H37.2453V1407.44H44.2533C45.6293 1407.44 46.6853 1407.81 47.4213 1408.54C48.1573 1409.28 48.5253 1410.34 48.5253 1411.71V1438.54H56.6373V1442H36.3813ZM73.9465 1442.58C72.0585 1442.58 70.4905 1442.24 69.2425 1441.57C67.9945 1440.9 67.0665 1440.02 66.4585 1438.93C65.8505 1437.81 65.5465 1436.59 65.5465 1435.28C65.5465 1432.85 66.4265 1431.01 68.1865 1429.76C69.9785 1428.48 72.3625 1427.84 75.3385 1427.84H81.8665V1427.36C81.8665 1423.2 79.9625 1421.12 76.1545 1421.12C74.6185 1421.12 73.3225 1421.46 72.2665 1422.13C71.2425 1422.8 70.5865 1423.86 70.2985 1425.3H66.1705C66.3305 1423.7 66.8585 1422.32 67.7545 1421.17C68.6825 1420.02 69.8665 1419.14 71.3065 1418.53C72.7465 1417.92 74.3625 1417.62 76.1545 1417.62C79.5465 1417.62 82.0105 1418.51 83.5465 1420.3C85.1145 1422.06 85.8985 1424.42 85.8985 1427.36V1442H82.4425L82.1065 1438.3H81.7705C81.0665 1439.46 80.1225 1440.46 78.9385 1441.33C77.7865 1442.16 76.1225 1442.58 73.9465 1442.58ZM74.6665 1439.02C76.2025 1439.02 77.4985 1438.66 78.5545 1437.92C79.6425 1437.18 80.4585 1436.21 81.0025 1434.99C81.5785 1433.78 81.8665 1432.45 81.8665 1431.01H75.6745C73.4985 1431.01 71.9625 1431.38 71.0665 1432.11C70.2025 1432.85 69.7705 1433.82 69.7705 1435.04C69.7705 1436.29 70.1865 1437.26 71.0185 1437.97C71.8505 1438.67 73.0665 1439.02 74.6665 1439.02ZM104.312 1434.99C102.648 1434.99 101.16 1434.69 99.8478 1434.08L98.2158 1436.05C97.8638 1436.53 97.7678 1437.01 97.9278 1437.49C98.1198 1437.94 98.5838 1438.16 99.3198 1438.16H105.608C108.456 1438.16 110.76 1438.72 112.52 1439.84C114.28 1440.93 115.16 1442.67 115.16 1445.07C115.16 1446.51 114.792 1447.84 114.056 1449.06C113.32 1450.27 112.152 1451.25 110.552 1451.98C108.984 1452.75 106.92 1453.14 104.36 1453.14C101.032 1453.14 98.3598 1452.51 96.3438 1451.26C94.3278 1450.02 93.3198 1448.11 93.3198 1445.55C93.3198 1444.62 93.5438 1443.76 93.9918 1442.96C94.4718 1442.19 95.0638 1441.5 95.7678 1440.9C94.8398 1440.32 94.2638 1439.46 94.0398 1438.3C93.8478 1437.15 94.1998 1436.02 95.0958 1434.9L97.2558 1432.21C95.7198 1430.61 94.9518 1428.64 94.9518 1426.3C94.9518 1424.77 95.3198 1423.34 96.0558 1422.03C96.7918 1420.69 97.8478 1419.62 99.2238 1418.82C100.632 1418.02 102.328 1417.62 104.312 1417.62C105.592 1417.62 106.776 1417.81 107.864 1418.19H116.792V1421.22L112.328 1421.36V1421.7C113.16 1423.07 113.576 1424.61 113.576 1426.3C113.576 1427.84 113.208 1429.28 112.472 1430.62C111.768 1431.94 110.712 1432.99 109.304 1433.79C107.928 1434.59 106.264 1434.99 104.312 1434.99ZM104.312 1431.54C105.88 1431.54 107.16 1431.07 108.152 1430.14C109.176 1429.22 109.688 1427.94 109.688 1426.3C109.688 1424.67 109.176 1423.41 108.152 1422.51C107.16 1421.58 105.88 1421.12 104.312 1421.12C102.712 1421.12 101.4 1421.58 100.376 1422.51C99.3518 1423.41 98.8398 1424.67 98.8398 1426.3C98.8398 1427.94 99.3518 1429.22 100.376 1430.14C101.4 1431.07 102.712 1431.54 104.312 1431.54ZM97.3038 1445.41C97.3038 1446.82 97.9598 1447.87 99.2718 1448.58C100.584 1449.28 102.28 1449.63 104.36 1449.63C106.376 1449.63 108.008 1449.23 109.256 1448.43C110.536 1447.63 111.176 1446.56 111.176 1445.22C111.176 1444.16 110.728 1443.26 109.832 1442.53C108.936 1441.82 107.288 1441.47 104.888 1441.47H99.4638C98.0238 1442.53 97.3038 1443.84 97.3038 1445.41ZM133.765 1442.58C130.725 1442.58 128.261 1441.87 126.373 1440.46C124.517 1439.02 123.477 1437.06 123.253 1434.56H127.429C127.621 1435.87 128.261 1436.94 129.349 1437.78C130.469 1438.61 131.973 1439.02 133.861 1439.02C135.653 1439.02 136.981 1438.64 137.845 1437.87C138.741 1437.1 139.189 1436.22 139.189 1435.23C139.189 1433.89 138.661 1432.98 137.605 1432.5C136.549 1431.98 134.965 1431.6 132.853 1431.34C130.325 1431.06 128.229 1430.37 126.565 1429.28C124.901 1428.19 124.069 1426.56 124.069 1424.38C124.069 1422.43 124.885 1420.82 126.517 1419.54C128.149 1418.26 130.373 1417.62 133.189 1417.62C135.973 1417.62 138.165 1418.26 139.765 1419.54C141.365 1420.78 142.277 1422.58 142.501 1424.91H138.517C138.421 1423.76 137.861 1422.85 136.837 1422.18C135.845 1421.47 134.597 1421.12 133.093 1421.12C131.525 1421.12 130.309 1421.42 129.445 1422.03C128.581 1422.61 128.149 1423.38 128.149 1424.34C128.149 1425.3 128.629 1426.1 129.589 1426.74C130.581 1427.34 132.133 1427.74 134.245 1427.94C135.909 1428.13 137.429 1428.45 138.805 1428.9C140.181 1429.34 141.269 1430.05 142.069 1431.01C142.901 1431.97 143.317 1433.31 143.317 1435.04C143.349 1436.48 142.949 1437.78 142.117 1438.93C141.317 1440.05 140.197 1440.94 138.757 1441.62C137.317 1442.26 135.653 1442.58 133.765 1442.58Z" fill="black"/>
<path d="M791.936 1442V1408.4H802.256C804.848 1408.4 806.976 1408.83 808.64 1409.7C810.336 1410.56 811.6 1411.74 812.432 1413.25C813.264 1414.72 813.68 1416.4 813.68 1418.29C813.68 1420.5 813.104 1422.45 811.952 1424.14C810.832 1425.81 809.104 1426.98 806.768 1427.65L814.064 1442H809.264L802.496 1428.22H802.256H795.968V1442H791.936ZM795.968 1424.53H802.112C804.672 1424.53 806.544 1423.95 807.728 1422.8C808.944 1421.62 809.552 1420.11 809.552 1418.29C809.552 1416.37 808.96 1414.85 807.776 1413.73C806.624 1412.61 804.72 1412.05 802.064 1412.05H795.968V1424.53ZM831.421 1442.58C829.181 1442.58 827.197 1442.06 825.469 1441.04C823.773 1439.98 822.429 1438.53 821.437 1436.67C820.445 1434.78 819.949 1432.59 819.949 1430.1C819.949 1427.6 820.429 1425.42 821.389 1423.57C822.381 1421.68 823.741 1420.22 825.469 1419.2C827.197 1418.14 829.213 1417.62 831.517 1417.62C833.821 1417.62 835.789 1418.14 837.421 1419.2C839.053 1420.22 840.301 1421.58 841.165 1423.28C842.029 1424.98 842.461 1426.8 842.461 1428.75C842.461 1429.1 842.445 1429.46 842.413 1429.81C842.413 1430.16 842.413 1430.56 842.413 1431.01H823.933C824.029 1432.77 824.429 1434.24 825.133 1435.42C825.869 1436.58 826.781 1437.44 827.869 1438.02C828.989 1438.59 830.173 1438.88 831.421 1438.88C833.181 1438.88 834.557 1438.51 835.549 1437.78C836.541 1437.04 837.293 1436.02 837.805 1434.7H841.789C841.245 1436.91 840.109 1438.78 838.381 1440.32C836.653 1441.82 834.333 1442.58 831.421 1442.58ZM831.421 1421.22C829.565 1421.22 827.933 1421.78 826.525 1422.9C825.149 1424.02 824.301 1425.58 823.981 1427.6H838.477C838.349 1425.62 837.629 1424.06 836.317 1422.94C835.037 1421.79 833.405 1421.22 831.421 1421.22ZM860.203 1442.58C857.163 1442.58 854.699 1441.87 852.811 1440.46C850.955 1439.02 849.915 1437.06 849.691 1434.56H853.867C854.059 1435.87 854.699 1436.94 855.787 1437.78C856.907 1438.61 858.411 1439.02 860.299 1439.02C862.091 1439.02 863.419 1438.64 864.283 1437.87C865.179 1437.1 865.627 1436.22 865.627 1435.23C865.627 1433.89 865.099 1432.98 864.043 1432.5C862.987 1431.98 861.403 1431.6 859.291 1431.34C856.763 1431.06 854.667 1430.37 853.003 1429.28C851.339 1428.19 850.507 1426.56 850.507 1424.38C850.507 1422.43 851.323 1420.82 852.955 1419.54C854.587 1418.26 856.811 1417.62 859.627 1417.62C862.411 1417.62 864.603 1418.26 866.203 1419.54C867.803 1420.78 868.715 1422.58 868.939 1424.91H864.955C864.859 1423.76 864.299 1422.85 863.275 1422.18C862.283 1421.47 861.035 1421.12 859.531 1421.12C857.963 1421.12 856.747 1421.42 855.883 1422.03C855.019 1422.61 854.587 1423.38 854.587 1424.34C854.587 1425.3 855.067 1426.1 856.027 1426.74C857.019 1427.34 858.571 1427.74 860.683 1427.94C862.347 1428.13 863.867 1428.45 865.243 1428.9C866.619 1429.34 867.707 1430.05 868.507 1431.01C869.339 1431.97 869.755 1433.31 869.755 1435.04C869.786 1436.48 869.387 1437.78 868.555 1438.93C867.755 1440.05 866.635 1440.94 865.195 1441.62C863.755 1442.26 862.091 1442.58 860.203 1442.58Z" fill="black"/>
<g filter="url(#filter9_d_7_40)">
<rect x="802" y="80" width="191" height="110" rx="10" fill="#CCEAFF"/>
<rect x="802.5" y="80.5" width="190" height="109" rx="9.5" stroke="black"/>
</g>
<path d="M287.4 56.576C284.68 56.576 282.344 55.856 280.392 54.416C278.44 52.976 276.936 50.96 275.88 48.368C274.856 45.744 274.344 42.688 274.344 39.2C274.344 35.712 274.856 32.672 275.88 30.08C276.936 27.456 278.44 25.424 280.392 23.984C282.344 22.544 284.68 21.824 287.4 21.824C290.12 21.824 292.456 22.544 294.408 23.984C296.36 25.424 297.848 27.456 298.872 30.08C299.928 32.672 300.456 35.712 300.456 39.2C300.456 42.688 299.928 45.744 298.872 48.368C297.848 50.96 296.36 52.976 294.408 54.416C292.456 55.856 290.12 56.576 287.4 56.576ZM287.4 52.784C290.056 52.784 292.2 51.6 293.832 49.232C295.496 46.864 296.328 43.52 296.328 39.2C296.328 34.88 295.496 31.536 293.832 29.168C292.2 26.8 290.056 25.616 287.4 25.616C284.712 25.616 282.552 26.8 280.92 29.168C279.288 31.536 278.472 34.88 278.472 39.2C278.472 43.52 279.288 46.864 280.92 49.232C282.552 51.6 284.712 52.784 287.4 52.784ZM305.525 66.56V32.192H308.789L309.269 36.128H309.557C310.165 34.848 311.141 33.776 312.485 32.912C313.829 32.048 315.413 31.616 317.237 31.616C319.157 31.616 320.885 32.096 322.421 33.056C323.989 34.016 325.221 35.44 326.117 37.328C327.013 39.184 327.461 41.456 327.461 44.144C327.461 46.8 326.997 49.056 326.069 50.912C325.173 52.768 323.925 54.176 322.325 55.136C320.757 56.096 318.949 56.576 316.901 56.576C315.077 56.576 313.525 56.192 312.245 55.424C310.997 54.624 310.101 53.696 309.557 52.64V66.56H305.525ZM316.421 52.736C318.437 52.736 320.101 52.032 321.413 50.624C322.725 49.184 323.381 47.008 323.381 44.096C323.381 41.184 322.725 39.024 321.413 37.616C320.101 36.176 318.437 35.456 316.421 35.456C314.405 35.456 312.741 36.176 311.429 37.616C310.117 39.024 309.461 41.184 309.461 44.096C309.461 47.008 310.117 49.184 311.429 50.624C312.741 52.032 314.405 52.736 316.421 52.736ZM344.963 56.096C343.971 56.096 343.123 55.76 342.419 55.088C341.715 54.416 341.363 53.584 341.363 52.592C341.363 51.632 341.715 50.816 342.419 50.144C343.123 49.472 343.971 49.136 344.963 49.136C345.955 49.136 346.803 49.472 347.507 50.144C348.211 50.816 348.563 51.632 348.563 52.592C348.563 53.584 348.211 54.416 347.507 55.088C346.803 55.76 345.955 56.096 344.963 56.096ZM360.928 56L371.44 22.4H376.096L386.56 56H382.144L379.696 47.648H367.792L365.344 56H360.928ZM373.648 28.064L368.8 44.288H378.688L373.84 28.064H373.648Z" fill="black"/>
<path d="M816.4 56.576C813.68 56.576 811.344 55.856 809.392 54.416C807.44 52.976 805.936 50.96 804.88 48.368C803.856 45.744 803.344 42.688 803.344 39.2C803.344 35.712 803.856 32.672 804.88 30.08C805.936 27.456 807.44 25.424 809.392 23.984C811.344 22.544 813.68 21.824 816.4 21.824C819.12 21.824 821.456 22.544 823.408 23.984C825.36 25.424 826.848 27.456 827.872 30.08C828.928 32.672 829.456 35.712 829.456 39.2C829.456 42.688 828.928 45.744 827.872 48.368C826.848 50.96 825.36 52.976 823.408 54.416C821.456 55.856 819.12 56.576 816.4 56.576ZM816.4 52.784C819.056 52.784 821.2 51.6 822.832 49.232C824.496 46.864 825.328 43.52 825.328 39.2C825.328 34.88 824.496 31.536 822.832 29.168C821.2 26.8 819.056 25.616 816.4 25.616C813.712 25.616 811.552 26.8 809.92 29.168C808.288 31.536 807.472 34.88 807.472 39.2C807.472 43.52 808.288 46.864 809.92 49.232C811.552 51.6 813.712 52.784 816.4 52.784ZM834.525 66.56V32.192H837.789L838.269 36.128H838.557C839.165 34.848 840.141 33.776 841.485 32.912C842.829 32.048 844.413 31.616 846.237 31.616C848.157 31.616 849.885 32.096 851.421 33.056C852.989 34.016 854.221 35.44 855.117 37.328C856.013 39.184 856.461 41.456 856.461 44.144C856.461 46.8 855.997 49.056 855.069 50.912C854.173 52.768 852.925 54.176 851.325 55.136C849.757 56.096 847.949 56.576 845.901 56.576C844.077 56.576 842.525 56.192 841.245 55.424C839.997 54.624 839.101 53.696 838.557 52.64V66.56H834.525ZM845.421 52.736C847.437 52.736 849.101 52.032 850.413 50.624C851.725 49.184 852.381 47.008 852.381 44.096C852.381 41.184 851.725 39.024 850.413 37.616C849.101 36.176 847.437 35.456 845.421 35.456C843.405 35.456 841.741 36.176 840.429 37.616C839.117 39.024 838.461 41.184 838.461 44.096C838.461 47.008 839.117 49.184 840.429 50.624C841.741 52.032 843.405 52.736 845.421 52.736ZM873.963 56.096C872.971 56.096 872.123 55.76 871.419 55.088C870.715 54.416 870.363 53.584 870.363 52.592C870.363 51.632 870.715 50.816 871.419 50.144C872.123 49.472 872.971 49.136 873.963 49.136C874.955 49.136 875.803 49.472 876.507 50.144C877.211 50.816 877.563 51.632 877.563 52.592C877.563 53.584 877.211 54.416 876.507 55.088C875.803 55.76 874.955 56.096 873.963 56.096ZM891.512 56V22.4H902.696C906.184 22.4 908.808 23.2 910.568 24.8C912.328 26.4 913.208 28.448 913.208 30.944C913.208 32.896 912.68 34.512 911.624 35.792C910.568 37.04 909.384 37.92 908.072 38.432V38.768C909.64 39.28 911.016 40.208 912.2 41.552C913.384 42.896 913.976 44.624 913.976 46.736C913.976 48.464 913.544 50.032 912.68 51.44C911.848 52.816 910.616 53.92 908.984 54.752C907.384 55.584 905.416 56 903.08 56H891.512ZM895.544 36.896H902.408C904.552 36.896 906.184 36.432 907.304 35.504C908.456 34.544 909.032 33.168 909.032 31.376C909.032 29.68 908.472 28.368 907.352 27.44C906.232 26.512 904.536 26.048 902.264 26.048H895.544V36.896ZM895.544 52.304H902.648C904.952 52.304 906.728 51.792 907.976 50.768C909.224 49.712 909.848 48.24 909.848 46.352C909.848 44.464 909.192 43.008 907.88 41.984C906.568 40.928 904.792 40.4 902.552 40.4H895.544V52.304Z" fill="black"/>
<mask id="path-23-inside-1_7_40" fill="white">
<path d="M4 1540H477V1626C477 1631.52 472.523 1636 467 1636H14C8.47715 1636 4 1631.52 4 1626V1540Z"/>
</mask>
<path d="M4 1540H477V1626C477 1631.52 472.523 1636 467 1636H14C8.47715 1636 4 1631.52 4 1626V1540Z" fill="#FFFFB5"/>
<path d="M4 1540H477H4ZM478 1626C478 1632.08 473.075 1637 467 1637H14C7.92487 1637 3 1632.08 3 1626H5C5 1630.97 9.02944 1635 14 1635H467C471.971 1635 476 1630.97 476 1626H478ZM14 1637C7.92487 1637 3 1632.08 3 1626V1540H5V1626C5 1630.97 9.02944 1635 14 1635V1637ZM478 1540V1626C478 1632.08 473.075 1637 467 1637V1635C471.971 1635 476 1630.97 476 1626V1540H478Z" fill="black" mask="url(#path-23-inside-1_7_40)"/>
<path d="M68.1188 1515.58C65.3988 1515.58 63.0628 1514.86 61.1108 1513.42C59.1588 1511.98 57.6548 1509.96 56.5988 1507.37C55.5748 1504.74 55.0628 1501.69 55.0628 1498.2C55.0628 1494.71 55.5748 1491.67 56.5988 1489.08C57.6548 1486.46 59.1588 1484.42 61.1108 1482.98C63.0628 1481.54 65.3988 1480.82 68.1188 1480.82C70.8388 1480.82 73.1748 1481.54 75.1268 1482.98C77.0788 1484.42 78.5668 1486.46 79.5908 1489.08C80.6468 1491.67 81.1748 1494.71 81.1748 1498.2C81.1748 1501.69 80.6468 1504.74 79.5908 1507.37C78.5668 1509.96 77.0788 1511.98 75.1268 1513.42C73.1748 1514.86 70.8388 1515.58 68.1188 1515.58ZM68.1188 1511.78C70.7748 1511.78 72.9188 1510.6 74.5508 1508.23C76.2148 1505.86 77.0468 1502.52 77.0468 1498.2C77.0468 1493.88 76.2148 1490.54 74.5508 1488.17C72.9188 1485.8 70.7748 1484.62 68.1188 1484.62C65.4308 1484.62 63.2708 1485.8 61.6388 1488.17C60.0068 1490.54 59.1908 1493.88 59.1908 1498.2C59.1908 1502.52 60.0068 1505.86 61.6388 1508.23C63.2708 1510.6 65.4308 1511.78 68.1188 1511.78ZM86.868 1515V1481.4H107.844V1485.14H90.9V1496.86H105.396V1500.46H90.9V1515H86.868Z" fill="black"/>
<path d="M227.455 1515.58C225.087 1515.58 223.023 1515.13 221.263 1514.23C219.535 1513.34 218.191 1512.09 217.231 1510.49C216.303 1508.89 215.823 1507.02 215.791 1504.87H220.015C220.047 1506.79 220.687 1508.46 221.935 1509.86C223.215 1511.24 225.055 1511.93 227.455 1511.93C229.663 1511.93 231.359 1511.4 232.543 1510.34C233.759 1509.26 234.367 1507.96 234.367 1506.46C234.367 1505.21 234.079 1504.17 233.503 1503.34C232.927 1502.47 231.983 1501.72 230.671 1501.08C229.391 1500.41 227.663 1499.72 225.487 1499.02C222.415 1498.09 220.175 1496.82 218.767 1495.22C217.359 1493.62 216.655 1491.64 216.655 1489.27C216.655 1487.67 217.071 1486.23 217.903 1484.95C218.735 1483.67 219.935 1482.66 221.503 1481.93C223.071 1481.19 224.975 1480.82 227.215 1480.82C229.327 1480.82 231.167 1481.22 232.735 1482.02C234.335 1482.79 235.567 1483.88 236.431 1485.29C237.327 1486.7 237.775 1488.31 237.775 1490.14H233.551C233.551 1489.24 233.311 1488.36 232.831 1487.5C232.351 1486.63 231.631 1485.91 230.671 1485.34C229.711 1484.76 228.495 1484.47 227.023 1484.47C225.263 1484.47 223.791 1484.9 222.607 1485.77C221.423 1486.6 220.831 1487.75 220.831 1489.22C220.831 1490.34 221.087 1491.29 221.599 1492.06C222.143 1492.82 223.023 1493.53 224.239 1494.17C225.455 1494.78 227.103 1495.43 229.183 1496.14C231.135 1496.78 232.799 1497.53 234.175 1498.39C235.583 1499.22 236.655 1500.26 237.391 1501.51C238.159 1502.76 238.543 1504.31 238.543 1506.17C238.543 1507.99 238.079 1509.61 237.151 1511.02C236.223 1512.42 234.927 1513.54 233.263 1514.38C231.599 1515.18 229.663 1515.58 227.455 1515.58ZM245.868 1515V1481.4H266.844V1485.14H249.9V1496.86H264.396V1500.46H249.9V1515H245.868Z" fill="black"/>
<path d="M373.531 1515V1511.69L390.907 1485.05H373.771V1481.4H395.563V1484.71L378.139 1511.35H395.755V1515H373.531ZM403.368 1515V1481.4H424.344V1485.14H407.4V1496.86H421.896V1500.46H407.4V1515H403.368Z" fill="black"/>
<line x1="1617.5" y1="840" x2="1617.5" y2="954" stroke="black"/>
<line x1="162.5" y1="1457" x2="162.5" y2="1636" stroke="black"/>
<line x1="320.5" y1="1457" x2="320.5" y2="1636" stroke="black"/>
<g filter="url(#filter10_d_7_40)">
<path d="M528 1506L558 1523.32V1488.68L528 1506ZM737 1506L707 1488.68V1523.32L737 1506ZM555 1509H710V1503H555V1509Z" fill="#747474"/>
</g>
<defs>
<filter id="filter0_d_7_40" x="346.68" y="188.996" width="42.641" height="290" filterUnits="userSpaceOnUse" color-interpolation-filters="sRGB">
<feFlood flood-opacity="0" result="BackgroundImageFix"/>
<feColorMatrix in="SourceAlpha" type="matrix" values="0 0 0 0 0 0 0 0 0 0 0 0 0 0 0 0 0 0 127 0" result="hardAlpha"/>
<feOffset dy="4"/>
<feGaussianBlur stdDeviation="2"/>
<feComposite in2="hardAlpha" operator="out"/>
<feColorMatrix type="matrix" values="0 0 0 0 0 0 0 0 0 0 0 0 0 0 0 0 0 0 0.25 0"/>
<feBlend mode="normal" in2="BackgroundImageFix" result="effect1_dropShadow_7_40"/>
<feBlend mode="normal" in="SourceGraphic" in2="effect1_dropShadow_7_40" result="shape"/>
</filter>
<filter id="filter1_d_7_40" x="876.68" y="190" width="42.641" height="288" filterUnits="userSpaceOnUse" color-interpolation-filters="sRGB">
<feFlood flood-opacity="0" result="BackgroundImageFix"/>
<feColorMatrix in="SourceAlpha" type="matrix" values="0 0 0 0 0 0 0 0 0 0 0 0 0 0 0 0 0 0 127 0" result="hardAlpha"/>
<feOffset dy="4"/>
<feGaussianBlur stdDeviation="2"/>
<feComposite in2="hardAlpha" operator="out"/>
<feColorMatrix type="matrix" values="0 0 0 0 0 0 0 0 0 0 0 0 0 0 0 0 0 0 0.25 0"/>
<feBlend mode="normal" in2="BackgroundImageFix" result="effect1_dropShadow_7_40"/>
<feBlend mode="normal" in="SourceGraphic" in2="effect1_dropShadow_7_40" result="shape"/>
</filter>
<filter id="filter2_d_7_40" x="626" y="1288" width="14" height="226" filterUnits="userSpaceOnUse" color-interpolation-filters="sRGB">
<feFlood flood-opacity="0" result="BackgroundImageFix"/>
<feColorMatrix in="SourceAlpha" type="matrix" values="0 0 0 0 0 0 0 0 0 0 0 0 0 0 0 0 0 0 127 0" result="hardAlpha"/>
<feOffset dy="4"/>
<feGaussianBlur stdDeviation="2"/>
<feComposite in2="hardAlpha" operator="out"/>
<feColorMatrix type="matrix" values="0 0 0 0 0 0 0 0 0 0 0 0 0 0 0 0 0 0 0.25 0"/>
<feBlend mode="normal" in2="BackgroundImageFix" result="effect1_dropShadow_7_40"/>
<feBlend mode="normal" in="SourceGraphic" in2="effect1_dropShadow_7_40" result="shape"/>
</filter>
<filter id="filter3_d_7_40" x="228.998" y="502.179" width="807.987" height="797.655" filterUnits="userSpaceOnUse" color-interpolation-filters="sRGB">
<feFlood flood-opacity="0" result="BackgroundImageFix"/>
<feColorMatrix in="SourceAlpha" type="matrix" values="0 0 0 0 0 0 0 0 0 0 0 0 0 0 0 0 0 0 127 0" result="hardAlpha"/>
<feOffset dy="4"/>
<feGaussianBlur stdDeviation="2"/>
<feComposite in2="hardAlpha" operator="out"/>
<feColorMatrix type="matrix" values="0 0 0 0 0 0 0 0 0 0 0 0 0 0 0 0 0 0 0.25 0"/>
<feBlend mode="normal" in2="BackgroundImageFix" result="effect1_dropShadow_7_40"/>
<feBlend mode="normal" in="SourceGraphic" in2="effect1_dropShadow_7_40" result="shape"/>
</filter>
<filter id="filter4_d_7_40" x="269" y="80" width="199" height="118" filterUnits="userSpaceOnUse" color-interpolation-filters="sRGB">
<feFlood flood-opacity="0" result="BackgroundImageFix"/>
<feColorMatrix in="SourceAlpha" type="matrix" values="0 0 0 0 0 0 0 0 0 0 0 0 0 0 0 0 0 0 127 0" result="hardAlpha"/>
<feOffset dy="4"/>
<feGaussianBlur stdDeviation="2"/>
<feComposite in2="hardAlpha" operator="out"/>
<feColorMatrix type="matrix" values="0 0 0 0 0 0 0 0 0 0 0 0 0 0 0 0 0 0 0.25 0"/>
<feBlend mode="normal" in2="BackgroundImageFix" result="effect1_dropShadow_7_40"/>
<feBlend mode="normal" in="SourceGraphic" in2="effect1_dropShadow_7_40" result="shape"/>
</filter>
<filter id="filter5_d_7_40" x="784" y="1457" width="199" height="118" filterUnits="userSpaceOnUse" color-interpolation-filters="sRGB">
<feFlood flood-opacity="0" result="BackgroundImageFix"/>
<feColorMatrix in="SourceAlpha" type="matrix" values="0 0 0 0 0 0 0 0 0 0 0 0 0 0 0 0 0 0 127 0" result="hardAlpha"/>
<feOffset dy="4"/>
<feGaussianBlur stdDeviation="2"/>
<feComposite in2="hardAlpha" operator="out"/>
<feColorMatrix type="matrix" values="0 0 0 0 0 0 0 0 0 0 0 0 0 0 0 0 0 0 0.25 0"/>
<feBlend mode="normal" in2="BackgroundImageFix" result="effect1_dropShadow_7_40"/>
<feBlend mode="normal" in="SourceGraphic" in2="effect1_dropShadow_7_40" result="shape"/>
</filter>
<filter id="filter6_d_7_40" x="0" y="1457" width="481" height="91" filterUnits="userSpaceOnUse" color-interpolation-filters="sRGB">
<feFlood flood-opacity="0" result="BackgroundImageFix"/>
<feColorMatrix in="SourceAlpha" type="matrix" values="0 0 0 0 0 0 0 0 0 0 0 0 0 0 0 0 0 0 127 0" result="hardAlpha"/>
<feOffset dy="4"/>
<feGaussianBlur stdDeviation="2"/>
<feComposite in2="hardAlpha" operator="out"/>
<feColorMatrix type="matrix" values="0 0 0 0 0 0 0 0 0 0 0 0 0 0 0 0 0 0 0.25 0"/>
<feBlend mode="normal" in2="BackgroundImageFix" result="effect1_dropShadow_7_40"/>
<feBlend mode="normal" in="SourceGraphic" in2="effect1_dropShadow_7_40" result="shape"/>
</filter>
<filter id="filter7_d_7_40" x="1243" y="840" width="593" height="122" filterUnits="userSpaceOnUse" color-interpolation-filters="sRGB">
<feFlood flood-opacity="0" result="BackgroundImageFix"/>
<feColorMatrix in="SourceAlpha" type="matrix" values="0 0 0 0 0 0 0 0 0 0 0 0 0 0 0 0 0 0 127 0" result="hardAlpha"/>
<feOffset dy="4"/>
<feGaussianBlur stdDeviation="2"/>
<feComposite in2="hardAlpha" operator="out"/>
<feColorMatrix type="matrix" values="0 0 0 0 0 0 0 0 0 0 0 0 0 0 0 0 0 0 0.25 0"/>
<feBlend mode="normal" in2="BackgroundImageFix" result="effect1_dropShadow_7_40"/>
<feBlend mode="normal" in="SourceGraphic" in2="effect1_dropShadow_7_40" result="shape"/>
</filter>
<filter id="filter8_d_7_40" x="961" y="879.679" width="290" height="42.641" filterUnits="userSpaceOnUse" color-interpolation-filters="sRGB">
<feFlood flood-opacity="0" result="BackgroundImageFix"/>
<feColorMatrix in="SourceAlpha" type="matrix" values="0 0 0 0 0 0 0 0 0 0 0 0 0 0 0 0 0 0 127 0" result="hardAlpha"/>
<feOffset dy="4"/>
<feGaussianBlur stdDeviation="2"/>
<feComposite in2="hardAlpha" operator="out"/>
<feColorMatrix type="matrix" values="0 0 0 0 0 0 0 0 0 0 0 0 0 0 0 0 0 0 0.25 0"/>
<feBlend mode="normal" in2="BackgroundImageFix" result="effect1_dropShadow_7_40"/>
<feBlend mode="normal" in="SourceGraphic" in2="effect1_dropShadow_7_40" result="shape"/>
</filter>
<filter id="filter9_d_7_40" x="798" y="80" width="199" height="118" filterUnits="userSpaceOnUse" color-interpolation-filters="sRGB">
<feFlood flood-opacity="0" result="BackgroundImageFix"/>
<feColorMatrix in="SourceAlpha" type="matrix" values="0 0 0 0 0 0 0 0 0 0 0 0 0 0 0 0 0 0 127 0" result="hardAlpha"/>
<feOffset dy="4"/>
<feGaussianBlur stdDeviation="2"/>
<feComposite in2="hardAlpha" operator="out"/>
<feColorMatrix type="matrix" values="0 0 0 0 0 0 0 0 0 0 0 0 0 0 0 0 0 0 0.25 0"/>
<feBlend mode="normal" in2="BackgroundImageFix" result="effect1_dropShadow_7_40"/>
<feBlend mode="normal" in="SourceGraphic" in2="effect1_dropShadow_7_40" result="shape"/>
</filter>
<filter id="filter10_d_7_40" x="524" y="1488.68" width="217" height="42.641" filterUnits="userSpaceOnUse" color-interpolation-filters="sRGB">
<feFlood flood-opacity="0" result="BackgroundImageFix"/>
<feColorMatrix in="SourceAlpha" type="matrix" values="0 0 0 0 0 0 0 0 0 0 0 0 0 0 0 0 0 0 127 0" result="hardAlpha"/>
<feOffset dy="4"/>
<feGaussianBlur stdDeviation="2"/>
<feComposite in2="hardAlpha" operator="out"/>
<feColorMatrix type="matrix" values="0 0 0 0 0 0 0 0 0 0 0 0 0 0 0 0 0 0 0.25 0"/>
<feBlend mode="normal" in2="BackgroundImageFix" result="effect1_dropShadow_7_40"/>
<feBlend mode="normal" in="SourceGraphic" in2="effect1_dropShadow_7_40" result="shape"/>
</filter>
</defs>
</svg>
